<svg width="564" height="168" viewBox="0 0 564 168" fill="none" xmlns="http://www.w3.org/2000/svg">
<path d="M542.418 167.34H21.5826C10.1153 167.34 0.747559 157.962 0.747559 146.505V21.505C0.747559 10.0377 10.1153 0.669998 21.5826 0.669998H542.418C553.875 0.669998 563.253 10.0377 563.253 21.505V146.505C563.253 157.962 553.875 167.34 542.418 167.34Z" fill="black"/>
<path d="M542.418 0.669998H21.5826C10.1153 0.669998 0.747559 10.0377 0.747559 21.505V146.505C0.747559 157.962 10.1153 167.34 21.5826 167.34H542.418C553.875 167.34 563.253 157.962 563.253 146.505V21.505C563.253 10.0377 553.875 0.669998 542.418 0.669998V0.669998ZM542.418 3.9992C552.075 3.9992 559.923 11.8573 559.923 21.505V146.505C559.923 156.153 552.075 164.001 542.418 164.001H21.5826C11.9349 164.001 4.07676 156.153 4.07676 146.505V21.505C4.07676 11.8573 11.9349 3.9992 21.5826 3.9992H542.418V3.9992Z" fill="#A6A6A6"/>
<path d="M446.321 125.67H454.099V73.5825H446.321V125.67ZM516.354 92.348L507.436 114.923H507.166L497.918 92.348H489.54L503.417 123.91L495.509 141.466H503.617L524.992 92.348H516.354V92.348ZM472.254 119.751C469.705 119.751 466.156 118.482 466.156 115.332C466.156 111.303 470.585 109.764 474.404 109.764C477.823 109.764 479.423 110.504 481.502 111.513C480.902 116.332 476.743 119.751 472.254 119.751V119.751ZM473.194 91.2083C467.565 91.2083 461.737 93.6877 459.327 99.1764L466.226 102.066C467.695 99.1764 470.445 98.2366 473.324 98.2366C477.353 98.2366 481.432 100.656 481.502 104.945V105.475C480.092 104.675 477.083 103.465 473.394 103.465C465.956 103.465 458.378 107.554 458.378 115.192C458.378 122.161 464.486 126.66 471.315 126.66C476.543 126.66 479.423 124.31 481.232 121.561H481.502V125.58H489.01V105.615C489.01 96.367 482.112 91.2083 473.194 91.2083V91.2083ZM425.146 98.6865H414.088V80.8307H425.146C430.954 80.8307 434.253 85.6396 434.253 89.7586C434.253 93.7976 430.954 98.6865 425.146 98.6865ZM424.946 73.5825H406.31V125.67H414.088V105.935H424.946C433.564 105.935 442.032 99.6962 442.032 89.7586C442.032 79.821 433.564 73.5825 424.946 73.5825V73.5825ZM323.35 119.761C317.981 119.761 313.482 115.262 313.482 109.084C313.482 102.845 317.981 98.2766 323.35 98.2766C328.659 98.2766 332.818 102.845 332.818 109.084C332.818 115.262 328.659 119.761 323.35 119.761ZM332.278 95.2573H332.018C330.268 93.1778 326.909 91.2982 322.68 91.2982C313.822 91.2982 305.694 99.0864 305.694 109.084C305.694 119.022 313.822 126.74 322.68 126.74C326.909 126.74 330.268 124.86 332.018 122.721H332.278V125.27C332.278 132.048 328.659 135.668 322.82 135.668C318.051 135.668 315.102 132.248 313.892 129.359L307.114 132.178C309.054 136.877 314.222 142.656 322.82 142.656C331.948 142.656 339.666 137.277 339.666 124.19V92.378H332.278V95.2573V95.2573ZM345.035 125.67H352.823V73.5825H345.035V125.67ZM364.3 108.484C364.1 101.636 369.609 98.1466 373.568 98.1466C376.657 98.1466 379.277 99.6862 380.146 101.906L364.3 108.484V108.484ZM388.464 102.576C386.995 98.6165 382.496 91.2982 373.298 91.2982C364.17 91.2982 356.582 98.4865 356.582 109.024C356.582 118.962 364.1 126.74 374.168 126.74C382.296 126.74 386.995 121.781 388.934 118.892L382.896 114.863C380.886 117.812 378.127 119.761 374.168 119.761C370.209 119.761 367.39 117.952 365.58 114.393L389.274 104.595L388.464 102.576V102.576ZM199.68 96.7369V104.255H217.665C217.136 108.484 215.726 111.573 213.576 113.723C210.957 116.342 206.858 119.222 199.68 119.222C188.602 119.222 179.945 110.294 179.945 99.2263C179.945 88.149 188.602 79.2211 199.68 79.2211C205.658 79.2211 210.017 81.5706 213.237 84.5898L218.545 79.2811C214.046 74.9921 208.068 71.7029 199.68 71.7029C184.513 71.7029 171.756 84.05 171.756 99.2263C171.756 114.393 184.513 126.74 199.68 126.74C207.868 126.74 214.046 124.06 218.875 119.022C223.844 114.053 225.394 107.074 225.394 101.436C225.394 99.6862 225.254 98.0766 224.984 96.7369H199.68V96.7369ZM245.839 119.761C240.47 119.761 235.841 115.332 235.841 109.024C235.841 102.646 240.47 98.2766 245.839 98.2766C251.217 98.2766 255.846 102.646 255.846 109.024C255.846 115.332 251.217 119.761 245.839 119.761ZM245.839 91.2982C236.041 91.2982 228.053 98.7564 228.053 109.024C228.053 119.222 236.041 126.74 245.839 126.74C255.646 126.74 263.634 119.222 263.634 109.024C263.634 98.7564 255.646 91.2982 245.839 91.2982ZM284.649 119.761C279.281 119.761 274.652 115.332 274.652 109.024C274.652 102.646 279.281 98.2766 284.649 98.2766C290.018 98.2766 294.647 102.646 294.647 109.024C294.647 115.332 290.018 119.761 284.649 119.761ZM284.649 91.2982C274.852 91.2982 266.864 98.7564 266.864 109.024C266.864 119.222 274.852 126.74 284.649 126.74C294.447 126.74 302.435 119.222 302.435 109.024C302.435 98.7564 294.447 91.2982 284.649 91.2982Z" fill="white"/>
<path fill-rule="evenodd" clip-rule="evenodd" d="M44.537 135.628L44.227 135.328C43.0173 134.048 42.2975 132.058 42.2975 129.479V130.079V37.931C42.2975 37.9211 42.2975 37.9111 42.2975 37.9111C42.2975 37.9211 42.2975 37.9211 42.2975 37.931V38.5409C42.2975 35.7516 43.1373 33.6421 44.527 32.3824L96.1546 84.01L44.537 135.628V135.628ZM42.2975 37.9011C42.2975 37.6711 42.3075 37.4512 42.3175 37.2312C42.3075 37.4512 42.2975 37.6711 42.2975 37.9011ZM42.3175 37.2212C42.3175 37.2212 42.3175 37.2212 42.3175 37.2112C42.3175 37.2212 42.3175 37.2212 42.3175 37.2212Z" fill="url(#paint0_linear_311_3461)"/>
<path fill-rule="evenodd" clip-rule="evenodd" d="M113.361 101.826L113.75 101.606L134.146 90.0186C136.085 88.9188 137.385 87.5791 138.025 86.1595C137.385 87.5791 136.085 88.9188 134.146 90.0285L113.75 101.606L113.361 101.826ZM113.371 101.216L96.1547 84.01L113.361 66.7941L134.146 78.6013C136.785 80.1009 138.265 82.0305 138.504 84C138.504 84.01 138.504 84.01 138.504 84.01C138.265 85.9795 136.785 87.9191 134.146 89.4087L113.371 101.216Z" fill="url(#paint1_linear_311_3461)"/>
<path fill-rule="evenodd" clip-rule="evenodd" d="M48.2161 137.587C46.7765 137.587 45.5168 137.127 44.537 136.237C45.5168 137.117 46.7765 137.587 48.2161 137.587C48.3461 137.587 48.4761 137.587 48.596 137.587C48.4661 137.587 48.3461 137.587 48.2161 137.587ZM48.2161 136.977C46.7765 136.987 45.5168 136.507 44.537 135.628L96.1546 84.01L113.371 101.216L52.885 135.588C51.2154 136.527 49.6258 136.977 48.2161 136.977V136.977ZM44.527 136.227C44.427 136.147 44.3371 136.058 44.2571 135.968L44.527 136.227Z" fill="url(#paint2_linear_311_3461)"/>
<path fill-rule="evenodd" clip-rule="evenodd" d="M96.1546 84.01L44.527 32.3824C45.5167 31.4926 46.7664 31.0327 48.2061 31.0327C49.6258 31.0327 51.2154 31.4826 52.885 32.4324L113.36 66.7941L96.1546 84.01V84.01ZM113.75 66.4042L52.885 31.8225C51.2154 30.8727 49.6258 30.4229 48.2061 30.4229H48.1961C48.1961 30.4229 48.2061 30.4229 48.2161 30.4229C49.6258 30.4229 51.2154 30.8727 52.885 31.8225L113.75 66.4042Z" fill="url(#paint3_linear_311_3461)"/>
<path d="M48.596 137.587C49.9057 137.507 51.3653 137.057 52.885 136.187L113.36 101.826L52.885 136.187C51.3653 137.057 49.9057 137.507 48.596 137.587ZM44.537 136.237L44.527 136.227C44.527 136.227 44.527 136.237 44.537 136.237ZM44.257 135.968L44.2271 135.938C44.237 135.948 44.247 135.958 44.257 135.968Z" fill="black"/>
<path fill-rule="evenodd" clip-rule="evenodd" d="M113.36 101.826L113.75 101.606L113.36 101.826Z" fill="url(#paint4_linear_311_3461)"/>
<path fill-rule="evenodd" clip-rule="evenodd" d="M48.2161 137.587C46.7764 137.587 45.5167 137.117 44.537 136.237C44.527 136.237 44.527 136.227 44.527 136.227L44.257 135.968C44.247 135.958 44.237 135.948 44.2271 135.938L44.537 135.628C45.5167 136.507 46.7764 136.987 48.2161 136.977C49.6258 136.977 51.2154 136.527 52.885 135.588L113.37 101.216L113.75 101.606L113.36 101.826L52.885 136.187C51.3653 137.057 49.9057 137.507 48.596 137.587C48.476 137.587 48.3461 137.587 48.2161 137.587V137.587Z" fill="url(#paint5_linear_311_3461)"/>
<path fill-rule="evenodd" clip-rule="evenodd" d="M44.227 135.938C43.0173 134.658 42.2975 132.658 42.2975 130.079V129.479C42.2975 132.058 43.0173 134.048 44.227 135.328L44.537 135.628L44.227 135.938Z" fill="url(#paint6_linear_311_3461)"/>
<path fill-rule="evenodd" clip-rule="evenodd" d="M138.025 86.16C138.345 85.46 138.505 84.73 138.505 84.01C138.505 84.73 138.345 85.46 138.025 86.16Z" fill="url(#paint7_linear_311_3461)"/>
<path fill-rule="evenodd" clip-rule="evenodd" d="M113.75 101.606L113.37 101.216L134.145 89.4087C136.785 87.9191 138.265 85.9795 138.504 84.01C138.504 84.7298 138.344 85.4597 138.025 86.1595C137.385 87.5792 136.085 88.9188 134.145 90.0186L113.75 101.606V101.606Z" fill="url(#paint8_linear_311_3461)"/>
<path d="M138.504 84.01V84C138.504 81.8205 137.055 79.6411 134.145 77.9915L113.75 66.4042L134.145 77.9915C137.055 79.6411 138.514 81.8305 138.504 84.01V84.01Z" fill="#404040"/>
<path fill-rule="evenodd" clip-rule="evenodd" d="M42.2975 37.9111C42.2975 37.9111 42.2975 37.911 42.2975 37.9011C42.2975 37.911 42.2975 37.9111 42.2975 37.9111ZM42.3175 37.2312V37.2212V37.2312ZM42.3175 37.2112C42.3175 37.2012 42.3175 37.2012 42.3175 37.1912C42.3175 37.2012 42.3175 37.2012 42.3175 37.2112ZM42.3175 37.1912C42.5574 32.9123 44.8869 30.4328 48.1761 30.4229C46.7464 30.4328 45.5067 30.8927 44.537 31.7725L44.527 31.7825C44.417 31.8725 44.327 31.9725 44.227 32.0724C43.1373 33.2322 42.4475 34.9618 42.3175 37.1912V37.1912Z" fill="url(#paint9_linear_311_3461)"/>
<path fill-rule="evenodd" clip-rule="evenodd" d="M113.36 66.7941L52.885 32.4324C51.2054 31.4826 49.6258 31.0327 48.2061 31.0327C46.7664 31.0327 45.5167 31.4926 44.527 32.3824L44.2271 32.0724C44.327 31.9725 44.417 31.8725 44.527 31.7825C44.527 31.7825 44.527 31.7725 44.537 31.7725C45.5067 30.8927 46.7465 30.4328 48.1761 30.4229C48.1861 30.4229 48.1861 30.4229 48.1961 30.4229H48.2061C49.6258 30.4229 51.2054 30.8727 52.885 31.8225L113.75 66.4042L113.36 66.7941V66.7941Z" fill="url(#paint10_linear_311_3461)"/>
<path d="M176.205 51.7677H180.634C183.524 51.7677 185.803 50.9379 187.493 49.2783C189.182 47.6287 190.032 45.3093 190.032 42.33C190.032 39.3807 189.182 37.0713 187.493 35.4017C185.803 33.7421 183.524 32.9023 180.634 32.9023H176.205V51.7677V51.7677ZM172.986 54.837V29.833H180.634C184.473 29.833 187.553 30.9927 189.852 33.3122C192.162 35.6216 193.311 38.6309 193.311 42.33C193.311 46.0391 192.162 49.0484 189.852 51.3578C187.553 53.6773 184.473 54.837 180.634 54.837H172.986Z" fill="white"/>
<path d="M176.205 51.7677V52.1776H180.634C183.594 52.1876 186.013 51.3178 187.793 49.5782C189.572 47.8387 190.442 45.3892 190.442 42.33C190.442 39.3007 189.572 36.8613 187.793 35.1017C186.013 33.3521 183.594 32.4824 180.634 32.4923H175.786V52.1776H176.205V51.7677H176.615V33.3221H180.634C183.444 33.3221 185.603 34.122 187.203 35.7016C188.802 37.2812 189.612 39.4507 189.612 42.33C189.612 45.2393 188.792 47.4188 187.203 48.9884C185.603 50.548 183.444 51.3378 180.634 51.3478H176.205V51.7677H176.615H176.205V51.7677ZM172.986 54.837H173.406V30.2529H180.634C184.393 30.2529 187.333 31.3726 189.562 33.6021C191.782 35.8415 192.891 38.7209 192.891 42.33C192.891 45.9491 191.782 48.8284 189.562 51.0679C187.333 53.2973 184.393 54.4171 180.634 54.4171H172.986V54.837H173.406H172.986V55.2469H180.634C184.553 55.2569 187.763 54.0572 190.152 51.6577C192.542 49.2583 193.731 46.1191 193.731 42.33C193.731 38.5509 192.542 35.4116 190.152 33.0122C187.763 30.6128 184.553 29.4131 180.634 29.4131H172.576V55.2469H172.986V54.837V54.837Z" fill="white"/>
<path d="M197.82 54.837H201.029V29.833H197.82V54.837Z" fill="white"/>
<path d="M197.82 54.837H198.24V30.2529H200.609V54.4171H197.82V54.837H198.24H197.82V55.2469H201.449V29.4131H197.4V55.2469H197.82V54.837Z" fill="white"/>
<path d="M213.806 55.3969C211.987 55.3969 210.217 54.797 208.488 53.6173C206.748 52.4276 205.608 50.758 205.078 48.6185L208.008 47.4288C208.358 48.8084 209.078 49.9682 210.157 50.9079C211.247 51.8477 212.457 52.3176 213.806 52.3176C215.206 52.3176 216.396 51.9577 217.386 51.2179C218.375 50.488 218.865 49.4883 218.865 48.2386C218.865 46.8389 218.375 45.7592 217.386 45.0094C216.396 44.2495 214.836 43.5497 212.687 42.8899C210.477 42.2 208.798 41.2902 207.658 40.1905C206.518 39.0808 205.948 37.6711 205.948 35.9415C205.948 34.152 206.658 32.5923 208.078 31.2627C209.497 29.943 211.357 29.2731 213.626 29.2731C215.756 29.2731 217.476 29.803 218.795 30.8627C220.125 31.9225 220.985 33.0822 221.385 34.3419L218.455 35.5616C218.245 34.7718 217.725 34.032 216.896 33.3621C216.076 32.6923 215.006 32.3524 213.706 32.3524C212.467 32.3524 211.417 32.6923 210.547 33.3821C209.667 34.062 209.228 34.9218 209.228 35.9415C209.228 36.8713 209.637 37.6611 210.437 38.301C211.247 38.9408 212.427 39.5207 213.986 40.0306C215.216 40.4305 216.246 40.8104 217.076 41.1803C217.895 41.5502 218.735 42.0501 219.585 42.6699C220.435 43.2798 221.075 44.0496 221.505 44.9694C221.934 45.8891 222.154 46.9589 222.154 48.1686C222.154 49.3783 221.904 50.458 221.405 51.4078C220.905 52.3676 220.235 53.1274 219.405 53.6873C218.585 54.2371 217.695 54.667 216.736 54.957C215.786 55.2469 214.806 55.3969 213.806 55.3969V55.3969Z" fill="white"/>
<path d="M213.806 55.3969V54.977C212.087 54.977 210.397 54.4171 208.718 53.2674C207.068 52.1377 205.998 50.578 205.478 48.5185L205.078 48.6185L205.238 49.0084L208.168 47.8187L208.008 47.4288L207.608 47.5388C207.978 48.9884 208.738 50.2281 209.887 51.2179C211.037 52.2176 212.357 52.7375 213.806 52.7375C215.276 52.7375 216.566 52.3476 217.635 51.5578C218.725 50.758 219.295 49.5983 219.285 48.2386C219.295 46.7389 218.735 45.5092 217.635 44.6794C216.586 43.8696 214.976 43.1598 212.817 42.49C210.647 41.8101 209.028 40.9303 207.948 39.8906C206.898 38.8508 206.368 37.5711 206.368 35.9415C206.368 34.2619 207.018 32.8423 208.368 31.5726C209.707 30.3229 211.427 29.693 213.626 29.693C215.686 29.693 217.296 30.2029 218.535 31.1927C219.815 32.2124 220.625 33.3022 220.985 34.4619L221.385 34.3419L221.225 33.952L218.295 35.1717L218.455 35.5616L218.855 35.4517C218.615 34.5619 218.035 33.7521 217.166 33.0422C216.256 32.2924 215.076 31.9325 213.706 31.9325C212.387 31.9325 211.227 32.3024 210.287 33.0522C209.327 33.7921 208.808 34.8018 208.818 35.9415C208.808 37.0013 209.297 37.9311 210.177 38.6309C211.047 39.3107 212.267 39.9006 213.846 40.4205H213.856V40.4305C215.076 40.8204 216.096 41.2003 216.906 41.5602C217.695 41.9201 218.515 42.4 219.335 42.9998C220.135 43.5797 220.725 44.2895 221.125 45.1493C221.525 45.9991 221.735 47.0089 221.735 48.1686C221.735 49.3183 221.505 50.3281 221.035 51.2179C220.565 52.1177 219.945 52.8175 219.175 53.3374C218.385 53.8772 217.536 54.2771 216.616 54.5571C215.706 54.837 214.766 54.977 213.806 54.977V55.8068C214.846 55.8068 215.866 55.6568 216.866 55.3569C217.855 55.0569 218.785 54.6071 219.645 54.0272C220.525 53.4273 221.245 52.6175 221.775 51.6078C222.304 50.588 222.564 49.4283 222.564 48.1686C222.564 46.9089 222.344 45.7792 221.884 44.7894C221.425 43.8096 220.735 42.9798 219.825 42.33C218.965 41.7002 218.105 41.1903 217.246 40.8004C216.396 40.4205 215.356 40.0306 214.106 39.6307H214.116C212.577 39.1308 211.447 38.5709 210.697 37.971C209.977 37.3912 209.657 36.7513 209.647 35.9415C209.657 35.0418 210.007 34.3419 210.797 33.7021C211.597 33.0822 212.547 32.7623 213.706 32.7623C214.936 32.7623 215.896 33.0822 216.636 33.6821V33.6921V33.6821C217.416 34.3219 217.865 34.9818 218.055 35.6716L218.175 36.1315L221.545 34.7218L221.894 34.5819L221.784 34.212C221.355 32.8623 220.435 31.6326 219.055 30.5328C217.645 29.4131 215.816 28.8532 213.626 28.8532C211.277 28.8532 209.297 29.5531 207.798 30.9627C206.308 32.3524 205.528 34.042 205.528 35.9415C205.528 37.7611 206.148 39.3107 207.368 40.4904C208.578 41.6502 210.307 42.5799 212.567 43.2898C214.686 43.9296 216.216 44.6295 217.136 45.3393C218.015 46.0191 218.445 46.9389 218.455 48.2386C218.445 49.3883 218.025 50.2181 217.136 50.888C216.226 51.5578 215.126 51.8977 213.806 51.9077C212.557 51.8977 211.457 51.4778 210.427 50.588C209.407 49.6982 208.748 48.6285 208.418 47.3288L208.298 46.8689L204.919 48.2286L204.589 48.3686L204.679 48.7185C205.228 50.9479 206.428 52.7175 208.248 53.9572C210.037 55.1869 211.897 55.8068 213.806 55.8068V55.3969V55.3969Z" fill="white"/>
<path d="M229.973 41.6302H235.351C236.701 41.6302 237.781 41.1803 238.6 40.2705C239.41 39.3707 239.82 38.371 239.82 37.2712C239.82 36.1815 239.41 35.1717 238.6 34.2719C237.781 33.3622 236.701 32.9023 235.351 32.9023H229.973V41.6302ZM229.973 54.837H226.763V29.833H235.281C237.401 29.833 239.23 30.5328 240.78 31.9425C242.33 33.3522 243.099 35.1317 243.099 37.2712C243.099 39.4107 242.33 41.1903 240.78 42.5999C239.23 43.9996 237.401 44.7094 235.281 44.7094H229.973V54.837V54.837Z" fill="white"/>
<path d="M229.973 41.6302V42.0501H235.351C236.791 42.06 238.021 41.5502 238.91 40.5504C239.78 39.5806 240.24 38.4709 240.24 37.2712C240.24 36.0715 239.78 34.9618 238.91 33.992C238.021 32.9922 236.791 32.4824 235.351 32.4923H229.553V42.0501H229.973V41.6302H230.392V33.3221H235.351C236.611 33.3321 237.551 33.732 238.291 34.5519C239.04 35.3917 239.4 36.2814 239.4 37.2712C239.4 38.261 239.05 39.1507 238.291 40.0005C237.551 40.8103 236.611 41.2103 235.351 41.2202H229.973V41.6302H230.392H229.973ZM229.973 54.837V54.4171H227.183V30.2529H235.281C237.311 30.2529 239.02 30.9127 240.5 32.2524C241.97 33.5921 242.679 35.2317 242.689 37.2712C242.679 39.3107 241.97 40.9503 240.5 42.29C239.02 43.6297 237.311 44.2895 235.281 44.2895H229.553V54.837H229.973V54.4171V54.837H230.392V45.1293H235.281C237.491 45.1293 239.45 44.3795 241.06 42.8998C242.689 41.4302 243.529 39.5107 243.519 37.2712C243.529 35.0317 242.689 33.1122 241.06 31.6426C239.45 30.1629 237.491 29.4131 235.281 29.4131H226.343V55.2469H230.392V54.837H229.973Z" fill="white"/>
<path d="M251.637 49.5083C253.487 51.3878 255.746 52.3176 258.426 52.3176C261.105 52.3176 263.374 51.3878 265.214 49.5083C267.074 47.6387 267.993 45.2393 267.993 42.33C267.993 39.4307 267.074 37.0313 265.214 35.1617C263.374 33.2822 261.105 32.3524 258.426 32.3524C255.746 32.3524 253.487 33.2822 251.637 35.1617C249.788 37.0313 248.858 39.4307 248.858 42.33C248.858 45.2393 249.788 47.6387 251.637 49.5083ZM267.593 51.6078C265.134 54.1272 262.085 55.3969 258.426 55.3969C254.777 55.3969 251.717 54.1272 249.268 51.6078C246.808 49.0784 245.579 45.9891 245.579 42.33C245.579 38.6809 246.808 35.5916 249.268 33.0622C251.717 30.5328 254.777 29.2731 258.426 29.2731C262.065 29.2731 265.114 30.5428 267.583 33.0822C270.043 35.6216 271.283 38.7009 271.283 42.33C271.283 45.9891 270.053 49.0784 267.593 51.6078Z" fill="white"/>
<path d="M251.637 49.5083L251.337 49.8082C253.257 51.7477 255.656 52.7375 258.426 52.7375C261.205 52.7375 263.594 51.7477 265.514 49.8082C267.444 47.8487 268.423 45.3293 268.413 42.33C268.423 39.3407 267.444 36.8113 265.514 34.8618C263.594 32.9123 261.205 31.9225 258.426 31.9325C255.656 31.9225 253.257 32.9123 251.337 34.8618L251.327 34.8818L251.337 34.8618C249.418 36.8113 248.438 39.3407 248.448 42.33C248.438 45.3293 249.418 47.8487 251.337 49.8082L251.637 49.5083L251.927 49.2183C250.168 47.4188 249.278 45.1593 249.278 42.33C249.278 39.5107 250.168 37.2512 251.927 35.4517C253.717 33.6521 255.846 32.7723 258.426 32.7623C261.005 32.7723 263.145 33.6521 264.924 35.4517C266.694 37.2512 267.573 39.5107 267.583 42.33C267.573 45.1593 266.694 47.4188 264.924 49.2183C263.145 51.0179 261.005 51.8977 258.426 51.9077C255.846 51.8977 253.717 51.0179 251.927 49.2183L251.637 49.5083ZM267.593 51.6078L267.294 51.3178C264.904 53.7673 261.985 54.967 258.426 54.977C254.867 54.967 251.947 53.7673 249.568 51.3178L249.548 51.2979L249.568 51.3178C247.178 48.8584 245.999 45.8991 245.999 42.33C245.999 38.7709 247.178 35.8116 249.568 33.3522C251.947 30.9027 254.867 29.693 258.426 29.693C261.965 29.693 264.874 30.9127 267.284 33.3722C269.673 35.8416 270.853 38.8008 270.863 42.33C270.853 45.8991 269.673 48.8584 267.294 51.3178L267.593 51.6078L267.893 51.8977C270.423 49.2983 271.703 46.0791 271.693 42.33C271.703 38.6109 270.413 35.4017 267.883 32.7923C265.344 30.1729 262.155 28.8532 258.426 28.8532C254.677 28.8532 251.487 30.1729 248.968 32.7723C246.439 35.3717 245.159 38.5909 245.169 42.33C245.159 46.0791 246.439 49.2983 248.968 51.8977C251.487 54.4971 254.677 55.8168 258.426 55.8068C262.175 55.8168 265.364 54.4971 267.893 51.8977L267.593 51.6078V51.6078Z" fill="white"/>
<path d="M275.792 54.837V29.833H279.701L291.848 49.2783H291.988L291.848 44.4695V29.833H295.067V54.837H291.708L279.001 34.4419H278.861L279.001 39.2607V54.837H275.792Z" fill="white"/>
<path d="M275.791 54.837H276.201V30.2529H279.461L291.618 49.6982H292.418L292.268 44.4595V30.2529H294.647V54.4171H291.938L279.231 34.032H278.431L278.581 39.2707V54.4171H275.791V54.837H276.201H275.791V55.2469H279.411V39.2607L279.271 34.4319L278.861 34.4419V34.8618H279.001V34.4419L278.641 34.6618L291.478 55.2469H295.477V29.4131H291.428V44.4695L291.568 49.2983L291.988 49.2783V48.8684H291.848V49.2783L292.198 49.0584L279.93 29.4131H275.372V55.2469H275.791V54.837Z" fill="white"/>
<path d="M303.795 27.8835H300.995L302.815 23.4045H306.304L303.795 27.8835ZM300.785 54.837V29.833H303.995V54.837H300.785Z" fill="white"/>
<path d="M303.795 27.8835V27.4636H301.615L303.095 23.8244H305.594L303.425 27.6735L303.795 27.8835V27.4636V27.8835L304.155 28.0834L307.014 22.9946H302.535L300.376 28.2934H304.035L304.155 28.0834L303.795 27.8835V27.8835ZM300.786 54.837H301.205V30.2529H303.585V54.4171H300.786V54.837H301.205H300.786V55.2469H304.415V29.4131H300.376V55.2469H300.786V54.837Z" fill="white"/>
<path d="M315.902 54.837L307.104 29.833H310.663L317.512 50.1181H317.651L324.77 29.833H328.329L319.261 54.837H315.902Z" fill="white"/>
<path d="M315.902 54.837L316.292 54.697L307.694 30.2529H310.373L317.212 50.538H317.941L325.07 30.2529H327.739L318.961 54.4171H315.902V54.837L316.292 54.697L315.902 54.837V55.2469H319.551L328.929 29.4131H324.48L317.252 49.9781L317.652 50.1181V49.7082H317.512V50.1181L317.901 49.9881L310.963 29.4131H306.514L315.612 55.2469H315.902V54.837Z" fill="white"/>
<path d="M346.564 32.9023H335.177V40.8304H345.445V43.8396H335.177V51.7677H346.564V54.837H331.968V29.833H346.564V32.9023Z" fill="white"/>
<path d="M346.564 32.9022V32.4923H334.767V41.2502H345.025V43.4197H334.767V52.1776H346.145V54.4171H332.388V30.2529H346.145V32.9022H346.564V32.4923V32.9022H346.984V29.4131H331.548V55.2469H346.984V51.3478H335.597V44.2495H345.865V40.4204H335.597V33.3221H346.984V32.9022H346.564Z" fill="white"/>
<path d="M351.593 54.837V29.833H354.803V51.7677H365.63V54.837H351.593Z" fill="white"/>
<path d="M351.593 54.837H352.013V30.2529H354.383V52.1776H365.21V54.4171H351.593V54.837H352.013H351.593V55.2469H366.04V51.3478H355.222V29.4131H351.173V55.2469H351.593V54.837Z" fill="white"/>
<path d="M378.057 54.837V29.833H381.966L394.113 49.2783H394.253L394.113 44.4695V29.833H397.332V54.837H393.983L381.266 34.4419H381.126L381.266 39.2607V54.837H378.057Z" fill="white"/>
<path d="M378.057 54.837H378.477V30.2529H381.736L393.893 49.6982H394.683L394.533 44.4595V30.2529H396.922V54.4171H394.213L381.506 34.032H380.706L380.856 39.2707V54.4171H378.057V54.837H378.477H378.057V55.2469H381.686V39.2607L381.546 34.4319L381.126 34.4419V34.8618H381.266V34.4419L380.916 34.6618L393.743 55.2469H397.752V29.4131H393.703V44.4695L393.843 49.2983L394.253 49.2783V48.8684H394.113V49.2783L394.473 49.0584L382.206 29.4131H377.647V55.2469H378.057V54.837Z" fill="white"/>
<path d="M407.54 49.5083C409.389 51.3878 411.649 52.3176 414.328 52.3176C417.008 52.3176 419.277 51.3878 421.127 49.5083C422.976 47.6387 423.906 45.2393 423.906 42.33C423.906 39.4307 422.976 37.0313 421.127 35.1617C419.277 33.2822 417.008 32.3524 414.328 32.3524C411.649 32.3524 409.389 33.2822 407.54 35.1617C405.69 37.0313 404.761 39.4307 404.761 42.33C404.761 45.2393 405.69 47.6387 407.54 49.5083ZM423.496 51.6078C421.037 54.1272 417.987 55.3969 414.328 55.3969C410.679 55.3969 407.62 54.1272 405.17 51.6078C402.711 49.0784 401.481 45.9891 401.481 42.33C401.481 38.6809 402.711 35.5916 405.17 33.0622C407.62 30.5328 410.679 29.2731 414.328 29.2731C417.967 29.2731 421.007 30.5428 423.476 33.0822C425.945 35.6216 427.185 38.7009 427.185 42.33C427.185 45.9891 425.955 49.0784 423.496 51.6078V51.6078Z" fill="white"/>
<path d="M407.54 49.5083L407.24 49.8082C409.159 51.7477 411.559 52.7375 414.328 52.7375C417.107 52.7375 419.497 51.7477 421.416 49.8082C423.346 47.8487 424.326 45.3293 424.316 42.33C424.326 39.3407 423.346 36.8113 421.416 34.8618C419.497 32.9123 417.107 31.9225 414.328 31.9325C411.559 31.9225 409.159 32.9123 407.24 34.8618C405.31 36.8113 404.341 39.3407 404.351 42.33C404.341 45.3293 405.31 47.8487 407.24 49.8082L407.54 49.5083L407.84 49.2183C406.07 47.4188 405.18 45.1593 405.18 42.33C405.18 39.5107 406.07 37.2512 407.84 35.4517C409.619 33.6521 411.749 32.7723 414.328 32.7623C416.908 32.7723 419.047 33.6521 420.827 35.4517C422.596 37.2512 423.476 39.5107 423.486 42.33C423.476 45.1593 422.596 47.4188 420.827 49.2183C419.047 51.0179 416.908 51.8977 414.328 51.9077C411.749 51.8977 409.619 51.0179 407.84 49.2183L407.54 49.5083ZM423.496 51.6078L423.196 51.3178C420.807 53.7673 417.887 54.967 414.328 54.977C410.769 54.967 407.85 53.7673 405.46 51.3178C403.081 48.8584 401.911 45.8991 401.901 42.33C401.911 38.7709 403.081 35.8116 405.46 33.3522C407.85 30.9027 410.769 29.693 414.328 29.693C417.867 29.693 420.777 30.9127 423.176 33.3722C425.575 35.8416 426.765 38.8008 426.765 42.33C426.765 45.8991 425.585 48.8584 423.196 51.3178L423.496 51.6078L423.796 51.8977C426.325 49.2983 427.605 46.0791 427.595 42.33C427.605 38.6109 426.315 35.4017 423.776 32.7923C421.246 30.1729 418.057 28.8532 414.328 28.8532C410.579 28.8532 407.39 30.1729 404.87 32.7723C402.331 35.3717 401.061 38.5909 401.071 42.33C401.061 46.0791 402.331 49.2983 404.87 51.8977C407.39 54.4971 410.579 55.8168 414.328 55.8068C418.077 55.8168 421.266 54.4971 423.796 51.8977L423.496 51.6078V51.6078Z" fill="white"/>
<defs>
<linearGradient id="paint0_linear_311_3461" x1="91.5757" y1="36.9613" x2="21.6524" y2="106.885" gradientUnits="userSpaceOnUse">
<stop stop-color="#00A0FF"/>
<stop offset="0.0117647" stop-color="#00A1FF"/>
<stop offset="0.258824" stop-color="#00BEFF"/>
<stop offset="0.509804" stop-color="#00D2FF"/>
<stop offset="0.760784" stop-color="#00DFFF"/>
<stop offset="1" stop-color="#00E3FF"/>
</linearGradient>
<linearGradient id="paint1_linear_311_3461" x1="141.724" y1="84.01" x2="40.8979" y2="84.01" gradientUnits="userSpaceOnUse">
<stop stop-color="#FFE000"/>
<stop offset="0.411765" stop-color="#FFBD00"/>
<stop offset="0.780392" stop-color="#FFA500"/>
<stop offset="1" stop-color="#FF9C00"/>
</linearGradient>
<linearGradient id="paint2_linear_311_3461" x1="104.193" y1="93.5677" x2="9.36546" y2="188.395" gradientUnits="userSpaceOnUse">
<stop stop-color="#FF3A44"/>
<stop offset="1" stop-color="#C31162"/>
</linearGradient>
<linearGradient id="paint3_linear_311_3461" x1="31.1502" y1="1.39982" x2="73.5" y2="43.7497" gradientUnits="userSpaceOnUse">
<stop stop-color="#32A071"/>
<stop offset="0.0705882" stop-color="#2DA771"/>
<stop offset="0.478431" stop-color="#15CF74"/>
<stop offset="0.8" stop-color="#06E775"/>
<stop offset="1" stop-color="#00F076"/>
</linearGradient>
<linearGradient id="paint4_linear_311_3461" x1="141.73" y1="84.0057" x2="40.8806" y2="84.0057" gradientUnits="userSpaceOnUse">
<stop stop-color="#CCB300"/>
<stop offset="0.411765" stop-color="#CC9700"/>
<stop offset="0.780392" stop-color="#CC8400"/>
<stop offset="1" stop-color="#CC7D00"/>
</linearGradient>
<linearGradient id="paint5_linear_311_3461" x1="104.193" y1="93.5677" x2="9.36542" y2="188.395" gradientUnits="userSpaceOnUse">
<stop stop-color="#CC2E36"/>
<stop offset="1" stop-color="#9C0E4E"/>
</linearGradient>
<linearGradient id="paint6_linear_311_3461" x1="91.5758" y1="36.9614" x2="21.6527" y2="106.885" gradientUnits="userSpaceOnUse">
<stop stop-color="#008DE0"/>
<stop offset="0.0117647" stop-color="#008DE0"/>
<stop offset="0.258824" stop-color="#00A7E0"/>
<stop offset="0.509804" stop-color="#00B8E0"/>
<stop offset="0.760784" stop-color="#00C4E0"/>
<stop offset="1" stop-color="#00C7E0"/>
</linearGradient>
<linearGradient id="paint7_linear_311_3461" x1="104.185" y1="93.57" x2="9.33477" y2="188.419" gradientUnits="userSpaceOnUse">
<stop stop-color="#E0333C"/>
<stop offset="1" stop-color="#AB0F56"/>
</linearGradient>
<linearGradient id="paint8_linear_311_3461" x1="141.724" y1="84.01" x2="40.8979" y2="84.01" gradientUnits="userSpaceOnUse">
<stop stop-color="#E0C500"/>
<stop offset="0.411765" stop-color="#E0A600"/>
<stop offset="0.780392" stop-color="#E09100"/>
<stop offset="1" stop-color="#E08900"/>
</linearGradient>
<linearGradient id="paint9_linear_311_3461" x1="141.724" y1="84.01" x2="40.8978" y2="84.01" gradientUnits="userSpaceOnUse">
<stop stop-color="#FFE840"/>
<stop offset="0.411765" stop-color="#FFCE40"/>
<stop offset="0.780392" stop-color="#FFBC40"/>
<stop offset="1" stop-color="#FFB540"/>
</linearGradient>
<linearGradient id="paint10_linear_311_3461" x1="31.1502" y1="1.39982" x2="73.5" y2="43.7497" gradientUnits="userSpaceOnUse">
<stop stop-color="#65B895"/>
<stop offset="0.0705882" stop-color="#62BD95"/>
<stop offset="0.478431" stop-color="#50DB97"/>
<stop offset="0.8" stop-color="#44ED98"/>
<stop offset="1" stop-color="#40F498"/>
</linearGradient>
</defs>
</svg>
