<svg width="548" height="60" viewBox="0 0 548 60" fill="none" xmlns="http://www.w3.org/2000/svg">
<path d="M28.0643 20.457V38.6235C28.0644 38.8702 28.0157 39.1145 27.921 39.3424C27.8263 39.5704 27.6875 39.7776 27.5123 39.9521C27.3372 40.1266 27.1293 40.2651 26.9004 40.3596C26.6715 40.4542 26.4262 40.5029 26.1784 40.503H2.26074C1.76048 40.5033 1.28058 40.3058 0.926547 39.9539C0.572519 39.602 0.373341 39.1246 0.372803 38.6265V20.457H28.0643Z" fill="#E1E1E1"/>
<path d="M2.2607 16.6929H26.1773C26.6774 16.6929 27.157 16.8905 27.5109 17.2424C27.8647 17.5942 28.0637 18.0715 28.0642 18.5694V20.457H0.37378V18.5724C0.373646 18.3257 0.422321 18.0814 0.517024 17.8534C0.611728 17.6255 0.750606 17.4183 0.925729 17.2438C1.10085 17.0693 1.30879 16.9308 1.53767 16.8363C1.76655 16.7417 2.01189 16.693 2.25969 16.6929H2.2607Z" fill="#C2C2C2"/>
<path d="M26.1773 16.6929H2.2607C1.76058 16.6945 1.28141 16.893 0.927865 17.2452C0.574316 17.5974 0.375118 18.0745 0.373779 18.5724V18.722C0.376722 18.2252 0.576628 17.7496 0.930003 17.3988C1.28338 17.0479 1.76163 16.8502 2.2607 16.8486H26.1773C26.6774 16.8502 27.1566 17.0487 27.5102 17.4009C27.8637 17.7531 28.0629 18.2302 28.0642 18.7281V18.5785C28.0645 18.0795 27.866 17.6008 27.5123 17.2474C27.1586 16.8939 26.6785 16.6945 26.1773 16.6929V16.6929Z" fill="white" fill-opacity="0.2"/>
<path d="M0.373779 20.457H28.0642V20.6067H0.373779V20.457Z" fill="#212121" fill-opacity="0.1"/>
<path d="M14.2089 26.0916C12.8886 26.0916 11.5812 26.3505 10.3613 26.8535C9.14152 27.3565 8.03316 28.0938 7.09955 29.0233C5.21404 30.9004 4.15477 33.4463 4.15477 36.1009V36.1141C4.15477 36.3244 4.14258 36.5832 4.15477 36.7409H8.5471C8.53523 36.5321 8.53523 36.3229 8.5471 36.1141C8.54856 35.1109 8.81866 34.1262 9.32957 33.2614C9.84048 32.3967 10.5737 31.6832 11.4538 31.1945C12.3338 30.7058 13.3288 30.4594 14.3363 30.4809C15.3438 30.5024 16.3273 30.7909 17.1855 31.3167L20.346 28.1703C18.5877 26.8196 16.4288 26.0881 14.2079 26.0906L14.2089 26.0916Z" fill="#4B4B4B"/>
<path d="M20.346 28.1643L17.1835 31.3127C18.0071 31.8165 18.6875 32.5219 19.1596 33.3617C19.6318 34.2015 19.8801 35.1477 19.8808 36.1101C19.8927 36.3189 19.8927 36.5282 19.8808 36.7369H24.2874C24.2996 36.5873 24.2874 36.3204 24.2874 36.1101C24.2872 34.5733 23.9316 33.0572 23.2481 31.6793C22.5646 30.3014 21.5715 29.0986 20.346 28.1643Z" fill="#1A1A1A"/>
<path d="M2.89039 19.1993C3.23814 19.1993 3.52005 18.9186 3.52005 18.5724C3.52005 18.2262 3.23814 17.9456 2.89039 17.9456C2.54265 17.9456 2.26074 18.2262 2.26074 18.5724C2.26074 18.9186 2.54265 19.1993 2.89039 19.1993Z" fill="#EEEEEE"/>
<path d="M5.40901 19.1993C5.75676 19.1993 6.03866 18.9186 6.03866 18.5724C6.03866 18.2262 5.75676 17.9456 5.40901 17.9456C5.06126 17.9456 4.77936 18.2262 4.77936 18.5724C4.77936 18.9186 5.06126 19.1993 5.40901 19.1993Z" fill="#EEEEEE"/>
<path d="M26.1804 40.3441H2.25464C1.75434 40.3428 1.27491 40.1443 0.921144 39.7922C0.567377 39.44 0.368039 38.9627 0.366699 38.4646L0.366699 38.6142C0.368039 39.1123 0.567377 39.5896 0.921144 39.9418C1.27491 40.294 1.75434 40.4924 2.25464 40.4938H26.1804C26.68 40.4914 27.1584 40.2924 27.5113 39.9404C27.8641 39.5883 28.0629 39.1116 28.0643 38.6142V38.4646C28.0629 38.962 27.8641 39.4387 27.5113 39.7907C27.1584 40.1428 26.68 40.3417 26.1804 40.3441Z" fill="#212121" fill-opacity="0.1"/>
<path d="M20.3744 28.5455C20.4135 28.4924 20.4345 28.4283 20.4343 28.3625C20.4341 28.2795 20.4008 28.1999 20.3418 28.1412C20.2828 28.0824 20.2029 28.0493 20.1195 28.0491C20.0488 28.0489 19.9802 28.0732 19.9255 28.1178L13.0644 33.3753C12.8447 33.5437 12.6651 33.7583 12.5382 34.0037C12.4113 34.2491 12.3403 34.5194 12.3302 34.7952C12.3202 35.071 12.3713 35.3457 12.4799 35.5996C12.5886 35.8536 12.7522 36.0806 12.9589 36.2644C13.1657 36.4483 13.4107 36.5845 13.6763 36.6635C13.942 36.7424 14.2219 36.7621 14.4961 36.7211C14.7703 36.6801 15.032 36.5795 15.2627 36.4263C15.4934 36.2732 15.6873 36.0713 15.8308 35.8351L20.3734 28.5455H20.3744Z" fill="#9E9E9E"/>
<path opacity="0.2" d="M13.0643 33.5339L19.9255 28.2765C19.9659 28.2438 20.0139 28.2218 20.0651 28.2125C20.1163 28.2032 20.169 28.2068 20.2184 28.2231C20.2678 28.2395 20.3122 28.2679 20.3477 28.3059C20.3831 28.3438 20.4084 28.39 20.4211 28.4402C20.4284 28.4159 20.4325 28.3908 20.4333 28.3654C20.433 28.2824 20.3998 28.2028 20.3408 28.1441C20.2818 28.0854 20.2019 28.0523 20.1185 28.052C20.0478 28.0518 19.9792 28.0761 19.9245 28.1208L13.0654 33.3782C12.8363 33.5532 12.6508 33.7784 12.5233 34.0363C12.3958 34.2943 12.3297 34.578 12.3301 34.8654V34.9493C12.3407 34.6742 12.412 34.4049 12.5389 34.1602C12.6658 33.9156 12.8452 33.7018 13.0643 33.5339Z" fill="white"/>
<path opacity="0.2" d="M20.3744 28.5454L15.8328 35.839C15.6231 36.1833 15.3078 36.4513 14.9335 36.6036C14.5591 36.7559 14.1455 36.7843 13.7537 36.6847C13.3618 36.5851 13.0125 36.3628 12.7573 36.0505C12.5021 35.7382 12.3544 35.3525 12.3362 34.9503V35.0221C12.3356 35.4326 12.4701 35.832 12.7191 36.1593C12.9681 36.4865 13.3179 36.7235 13.715 36.834C14.1122 36.9445 14.5347 36.9225 14.9181 36.7713C15.3015 36.6201 15.6245 36.3481 15.8379 35.9968L20.3795 28.7031C20.4186 28.65 20.4396 28.5859 20.4394 28.5201C20.4394 28.4927 20.4353 28.4654 20.4272 28.4392C20.4161 28.4775 20.3982 28.5134 20.3744 28.5454Z" fill="#212121"/>
<path d="M20.3703 28.1733C20.411 28.2269 20.433 28.2922 20.433 28.3594C20.433 28.4265 20.411 28.4918 20.3703 28.5454L15.8287 35.8391C15.6866 36.0715 15.4955 36.2703 15.2685 36.4219C15.0416 36.5735 14.7843 36.6742 14.5144 36.717C14.2445 36.7598 13.9685 36.7437 13.7055 36.6698C13.4425 36.5959 13.1988 36.4659 12.9912 36.289L17.218 40.497H26.1743C26.4222 40.4973 26.6677 40.4491 26.8969 40.355C27.126 40.2609 27.3343 40.1228 27.5098 39.9485C27.6853 39.7743 27.8246 39.5673 27.9198 39.3394C28.0149 39.1115 28.064 38.8672 28.0643 38.6205V35.835L20.3703 28.1733Z" fill="url(#paint0_linear_245_1216)"/>
<path d="M28.0642 21.3798C28.0644 21.1331 28.0157 20.8888 27.921 20.6608C27.8263 20.4329 27.6874 20.2257 27.5123 20.0512C27.3372 19.8766 27.1292 19.7382 26.9003 19.6436C26.6715 19.5491 26.4261 19.5004 26.1783 19.5002H2.2607C2.01291 19.5002 1.76754 19.5488 1.53861 19.6432C1.30968 19.7376 1.10166 19.876 0.926447 20.0505C0.75123 20.2249 0.61224 20.432 0.517413 20.6599C0.422586 20.8878 0.37378 21.1321 0.37378 21.3788V41.4278C0.373646 41.6745 0.422321 41.9188 0.517024 42.1467C0.611728 42.3747 0.750606 42.5819 0.925729 42.7564C1.10085 42.9309 1.30879 43.0694 1.53767 43.1639C1.76655 43.2585 2.01189 43.3072 2.25969 43.3073H26.1773C26.6772 43.3073 27.1567 43.1098 27.5105 42.7582C27.8643 42.4065 28.0634 41.9295 28.0642 41.4318V21.3798Z" fill="url(#paint1_radial_245_1216)"/>
<path d="M34.8572 35.6929V22.7329H39.6272C39.7532 22.7329 39.8822 22.7389 40.0142 22.7509C40.1462 22.7569 40.2932 22.7749 40.4552 22.8049C41.0792 22.9009 41.6192 23.1289 42.0752 23.4889C42.5372 23.8429 42.8912 24.2929 43.1372 24.8389C43.3892 25.3789 43.5152 25.9729 43.5152 26.6209C43.5152 27.2689 43.3892 27.8659 43.1372 28.4119C42.8912 28.9519 42.5372 29.4019 42.0752 29.7619C41.6192 30.1159 41.0792 30.3409 40.4552 30.4369C40.2932 30.4609 40.1462 30.4789 40.0142 30.4909C39.8822 30.5029 39.7532 30.5089 39.6272 30.5089H35.6132V35.6929H34.8572ZM35.6132 29.7529H39.6272C39.7292 29.7529 39.8492 29.7469 39.9872 29.7349C40.1312 29.7229 40.2752 29.7049 40.4192 29.6809C40.9172 29.5849 41.3342 29.3869 41.6702 29.0869C42.0122 28.7869 42.2702 28.4239 42.4442 27.9979C42.6182 27.5659 42.7052 27.1069 42.7052 26.6209C42.7052 26.1349 42.6182 25.6789 42.4442 25.2529C42.2702 24.8209 42.0122 24.4549 41.6702 24.1549C41.3342 23.8549 40.9172 23.6569 40.4192 23.5609C40.2752 23.5309 40.1312 23.5129 39.9872 23.5069C39.8492 23.4949 39.7292 23.4889 39.6272 23.4889H35.6132V29.7529ZM47.5972 35.9629C46.8412 35.9629 46.2142 35.8309 45.7162 35.5669C45.2182 35.3029 44.8462 34.9549 44.6002 34.5229C44.3542 34.0909 44.2312 33.6229 44.2312 33.1189C44.2312 32.5489 44.3542 32.0779 44.6002 31.7059C44.8522 31.3279 45.1792 31.0309 45.5812 30.8149C45.9832 30.5989 46.4152 30.4429 46.8772 30.3469C47.4412 30.2329 48.0442 30.1339 48.6862 30.0499C49.3342 29.9599 49.9312 29.8849 50.4772 29.8249C51.0232 29.7649 51.4312 29.7169 51.7012 29.6809L51.4312 29.8609C51.4612 28.7149 51.2512 27.8629 50.8012 27.3049C50.3572 26.7409 49.5712 26.4589 48.4432 26.4589C47.6272 26.4589 46.9702 26.6419 46.4722 27.0079C45.9802 27.3679 45.6352 27.9229 45.4372 28.6729L44.6092 28.4569C44.8252 27.5569 45.2662 26.8729 45.9322 26.4049C46.6042 25.9369 47.4532 25.7029 48.4792 25.7029C49.3792 25.7029 50.1292 25.8859 50.7292 26.2519C51.3292 26.6179 51.7372 27.1129 51.9532 27.7369C52.0372 27.9769 52.0972 28.2679 52.1332 28.6099C52.1692 28.9519 52.1872 29.2849 52.1872 29.6089V35.6929H51.4852V33.0289L51.8452 33.0469C51.5872 33.9709 51.0742 34.6879 50.3062 35.1979C49.5382 35.7079 48.6352 35.9629 47.5972 35.9629ZM47.5612 35.2069C48.2632 35.2069 48.8812 35.0809 49.4152 34.8289C49.9552 34.5769 50.3902 34.2139 50.7202 33.7399C51.0562 33.2599 51.2692 32.6869 51.3592 32.0209C51.4072 31.6849 51.4312 31.3249 51.4312 30.9409C51.4312 30.5569 51.4312 30.2809 51.4312 30.1129L51.8272 30.4189C51.5092 30.4489 51.0682 30.4909 50.5042 30.5449C49.9462 30.5929 49.3552 30.6589 48.7312 30.7429C48.1072 30.8209 47.5432 30.9229 47.0392 31.0489C46.7452 31.1209 46.4422 31.2349 46.1302 31.3909C45.8182 31.5469 45.5542 31.7659 45.3382 32.0479C45.1282 32.3299 45.0232 32.6929 45.0232 33.1369C45.0232 33.4489 45.1012 33.7639 45.2572 34.0819C45.4132 34.3999 45.6742 34.6669 46.0402 34.8829C46.4122 35.0989 46.9192 35.2069 47.5612 35.2069ZM58.2351 40.2829C57.7671 40.2829 57.2961 40.2169 56.8221 40.0849C56.3481 39.9529 55.9011 39.7279 55.4811 39.4099C55.0671 39.0979 54.7131 38.6689 54.4191 38.1229L55.0851 37.6729C55.4091 38.3389 55.8651 38.8099 56.4531 39.0859C57.0411 39.3679 57.6351 39.5089 58.2351 39.5089C59.1051 39.5089 59.7831 39.3439 60.2691 39.0139C60.7611 38.6899 61.1061 38.2039 61.3041 37.5559C61.5021 36.9139 61.6011 36.1129 61.6011 35.1529V32.6689H61.6731V25.9729H62.3751V35.1529C62.3751 35.4469 62.3691 35.7319 62.3571 36.0079C62.3451 36.2839 62.3211 36.5569 62.2851 36.8269C62.1891 37.6129 61.9791 38.2609 61.6551 38.7709C61.3371 39.2809 60.8961 39.6589 60.3321 39.9049C59.7681 40.1569 59.0691 40.2829 58.2351 40.2829ZM58.2171 35.9629C57.2991 35.9629 56.5251 35.7379 55.8951 35.2879C55.2711 34.8319 54.7971 34.2169 54.4731 33.4429C54.1491 32.6629 53.9871 31.7869 53.9871 30.8149C53.9871 29.8609 54.1461 28.9969 54.4641 28.2229C54.7821 27.4489 55.2441 26.8369 55.8501 26.3869C56.4621 25.9309 57.2031 25.7029 58.0731 25.7029C58.9791 25.7029 59.7411 25.9249 60.3591 26.3689C60.9831 26.8069 61.4541 27.4129 61.7721 28.1869C62.0901 28.9549 62.2491 29.8309 62.2491 30.8149C62.2491 31.7809 62.0901 32.6539 61.7721 33.4339C61.4601 34.2079 61.0041 34.8229 60.4041 35.2789C59.8041 35.7349 59.0751 35.9629 58.2171 35.9629ZM58.2171 35.2069C58.9791 35.2069 59.6151 35.0149 60.1251 34.6309C60.6411 34.2469 61.0281 33.7249 61.2861 33.0649C61.5441 32.3989 61.6731 31.6489 61.6731 30.8149C61.6731 29.9689 61.5411 29.2189 61.2771 28.5649C61.0191 27.9049 60.6321 27.3889 60.1161 27.0169C59.6061 26.6449 58.9731 26.4589 58.2171 26.4589C57.4431 26.4589 56.8011 26.6509 56.2911 27.0349C55.7871 27.4129 55.4121 27.9319 55.1661 28.5919C54.9201 29.2459 54.7971 29.9869 54.7971 30.8149C54.7971 31.6489 54.9261 32.3989 55.1841 33.0649C55.4421 33.7249 55.8231 34.2469 56.3271 34.6309C56.8371 35.0149 57.4671 35.2069 58.2171 35.2069ZM68.8042 35.9629C67.8862 35.9629 67.0942 35.7559 66.4282 35.3419C65.7682 34.9279 65.2582 34.3369 64.8982 33.5689C64.5382 32.8009 64.3582 31.8889 64.3582 30.8329C64.3582 29.7709 64.5352 28.8559 64.8892 28.0879C65.2492 27.3199 65.7592 26.7319 66.4192 26.3239C67.0852 25.9099 67.8802 25.7029 68.8042 25.7029C69.7342 25.7029 70.5292 25.9129 71.1892 26.3329C71.8492 26.7529 72.3532 27.3619 72.7012 28.1599C73.0552 28.9579 73.2322 29.9209 73.2322 31.0489H72.4222V30.7969C72.3862 29.3989 72.0562 28.3279 71.4322 27.5839C70.8142 26.8339 69.9382 26.4589 68.8042 26.4589C67.6522 26.4589 66.7582 26.8429 66.1222 27.6109C65.4862 28.3729 65.1682 29.4469 65.1682 30.8329C65.1682 32.2189 65.4862 33.2959 66.1222 34.0639C66.7582 34.8259 67.6522 35.2069 68.8042 35.2069C69.6082 35.2069 70.3132 35.0179 70.9192 34.6399C71.5252 34.2619 72.0082 33.7189 72.3682 33.0109L72.9982 33.3709C72.6022 34.1989 72.0412 34.8379 71.3152 35.2879C70.5892 35.7379 69.7522 35.9629 68.8042 35.9629ZM64.8442 31.0489V30.2929H72.7642V31.0489H64.8442ZM79.5185 35.9629C78.6425 35.9629 77.8535 35.8219 77.1515 35.5399C76.4555 35.2519 75.8765 34.8469 75.4145 34.3249C74.9585 33.8029 74.6525 33.1849 74.4965 32.4709L75.2525 32.3269C75.4865 33.2149 75.9845 33.9169 76.7465 34.4329C77.5085 34.9489 78.4325 35.2069 79.5185 35.2069C80.2745 35.2069 80.9345 35.0869 81.4985 34.8469C82.0625 34.6069 82.5005 34.2709 82.8125 33.8389C83.1245 33.4009 83.2805 32.8909 83.2805 32.3089C83.2805 31.8709 83.1995 31.5049 83.0375 31.2109C82.8755 30.9169 82.6685 30.6799 82.4165 30.4999C82.1705 30.3139 81.9125 30.1669 81.6425 30.0589C81.3725 29.9509 81.1325 29.8669 80.9225 29.8069L77.6825 28.8349C77.2145 28.6969 76.8095 28.5289 76.4675 28.3309C76.1315 28.1329 75.8555 27.9079 75.6395 27.6559C75.4235 27.4039 75.2615 27.1279 75.1535 26.8279C75.0515 26.5279 75.0005 26.2069 75.0005 25.8649C75.0005 25.2049 75.1775 24.6199 75.5315 24.1099C75.8915 23.5939 76.3895 23.1919 77.0255 22.9039C77.6615 22.6099 78.3965 22.4629 79.2305 22.4629C80.0765 22.4629 80.8355 22.6189 81.5075 22.9309C82.1795 23.2429 82.7285 23.6839 83.1545 24.2539C83.5865 24.8179 83.8565 25.4809 83.9645 26.2429L83.2085 26.3869C83.1245 25.7569 82.9025 25.2049 82.5425 24.7309C82.1825 24.2509 81.7175 23.8789 81.1475 23.6149C80.5775 23.3509 79.9385 23.2189 79.2305 23.2189C78.5525 23.2189 77.9555 23.3359 77.4395 23.5699C76.9295 23.8039 76.5305 24.1189 76.2425 24.5149C75.9545 24.9109 75.8105 25.3549 75.8105 25.8469C75.8105 26.3629 75.9485 26.7769 76.2245 27.0889C76.5065 27.3949 76.8485 27.6349 77.2505 27.8089C77.6525 27.9769 78.0365 28.1149 78.4025 28.2229L81.0845 29.0329C81.3125 29.0989 81.5915 29.1979 81.9215 29.3299C82.2515 29.4559 82.5755 29.6389 82.8935 29.8789C83.2175 30.1189 83.4845 30.4369 83.6945 30.8329C83.9105 31.2229 84.0185 31.7149 84.0185 32.3089C84.0185 32.8669 83.9135 33.3709 83.7035 33.8209C83.4935 34.2709 83.1905 34.6549 82.7945 34.9729C82.3985 35.2909 81.9245 35.5339 81.3725 35.7019C80.8205 35.8759 80.2025 35.9629 79.5185 35.9629ZM89.9742 35.9629C89.1162 35.9629 88.3872 35.7349 87.7872 35.2789C87.1872 34.8229 86.7282 34.2079 86.4102 33.4339C86.0982 32.6539 85.9422 31.7809 85.9422 30.8149C85.9422 29.8309 86.1012 28.9549 86.4192 28.1869C86.7372 27.4129 87.2052 26.8069 87.8232 26.3689C88.4472 25.9249 89.2122 25.7029 90.1182 25.7029C90.9882 25.7029 91.7262 25.9309 92.3322 26.3869C92.9442 26.8369 93.4092 27.4489 93.7272 28.2229C94.0452 28.9969 94.2042 29.8609 94.2042 30.8149C94.2042 31.7869 94.0422 32.6629 93.7182 33.4429C93.3942 34.2169 92.9172 34.8319 92.2872 35.2879C91.6632 35.7379 90.8922 35.9629 89.9742 35.9629ZM85.8162 40.0129V25.9729H86.5182V33.6229H86.5722V40.0129H85.8162ZM89.9742 35.2069C90.7242 35.2069 91.3512 35.0149 91.8552 34.6309C92.3652 34.2469 92.7492 33.7249 93.0072 33.0649C93.2652 32.3989 93.3942 31.6489 93.3942 30.8149C93.3942 29.9869 93.2682 29.2459 93.0162 28.5919C92.7702 27.9319 92.3952 27.4129 91.8912 27.0349C91.3872 26.6509 90.7482 26.4589 89.9742 26.4589C89.2182 26.4589 88.5822 26.6449 88.0662 27.0169C87.5562 27.3889 87.1692 27.9049 86.9052 28.5649C86.6472 29.2189 86.5182 29.9689 86.5182 30.8149C86.5182 31.6489 86.6472 32.3989 86.9052 33.0649C87.1632 33.7249 87.5472 34.2469 88.0572 34.6309C88.5732 35.0149 89.2122 35.2069 89.9742 35.2069ZM100.093 35.9629C99.1752 35.9629 98.3832 35.7559 97.7172 35.3419C97.0572 34.9279 96.5472 34.3369 96.1872 33.5689C95.8272 32.8009 95.6472 31.8889 95.6472 30.8329C95.6472 29.7709 95.8242 28.8559 96.1782 28.0879C96.5382 27.3199 97.0482 26.7319 97.7082 26.3239C98.3742 25.9099 99.1692 25.7029 100.093 25.7029C101.023 25.7029 101.818 25.9129 102.478 26.3329C103.138 26.7529 103.642 27.3619 103.99 28.1599C104.344 28.9579 104.521 29.9209 104.521 31.0489H103.711V30.7969C103.675 29.3989 103.345 28.3279 102.721 27.5839C102.103 26.8339 101.227 26.4589 100.093 26.4589C98.9412 26.4589 98.0472 26.8429 97.4112 27.6109C96.7752 28.3729 96.4572 29.4469 96.4572 30.8329C96.4572 32.2189 96.7752 33.2959 97.4112 34.0639C98.0472 34.8259 98.9412 35.2069 100.093 35.2069C100.897 35.2069 101.602 35.0179 102.208 34.6399C102.814 34.2619 103.297 33.7189 103.657 33.0109L104.287 33.3709C103.891 34.1989 103.33 34.8379 102.604 35.2879C101.878 35.7379 101.041 35.9629 100.093 35.9629ZM96.1332 31.0489V30.2929H104.053V31.0489H96.1332ZM110.412 35.9629C109.494 35.9629 108.702 35.7559 108.036 35.3419C107.376 34.9279 106.866 34.3369 106.506 33.5689C106.146 32.8009 105.966 31.8889 105.966 30.8329C105.966 29.7709 106.143 28.8559 106.497 28.0879C106.857 27.3199 107.367 26.7319 108.027 26.3239C108.693 25.9099 109.488 25.7029 110.412 25.7029C111.342 25.7029 112.137 25.9129 112.797 26.3329C113.457 26.7529 113.961 27.3619 114.309 28.1599C114.663 28.9579 114.84 29.9209 114.84 31.0489H114.03V30.7969C113.994 29.3989 113.664 28.3279 113.04 27.5839C112.422 26.8339 111.546 26.4589 110.412 26.4589C109.26 26.4589 108.366 26.8429 107.73 27.6109C107.094 28.3729 106.776 29.4469 106.776 30.8329C106.776 32.2189 107.094 33.2959 107.73 34.0639C108.366 34.8259 109.26 35.2069 110.412 35.2069C111.216 35.2069 111.921 35.0179 112.527 34.6399C113.133 34.2619 113.616 33.7189 113.976 33.0109L114.606 33.3709C114.21 34.1989 113.649 34.8379 112.923 35.2879C112.197 35.7379 111.36 35.9629 110.412 35.9629ZM106.452 31.0489V30.2929H114.372V31.0489H106.452ZM120.514 35.9629C119.596 35.9629 118.822 35.7379 118.192 35.2879C117.568 34.8319 117.094 34.2169 116.77 33.4429C116.446 32.6629 116.284 31.7869 116.284 30.8149C116.284 29.8609 116.443 28.9969 116.761 28.2229C117.079 27.4489 117.541 26.8369 118.147 26.3869C118.759 25.9309 119.5 25.7029 120.37 25.7029C121.276 25.7029 122.038 25.9249 122.656 26.3689C123.28 26.8069 123.751 27.4129 124.069 28.1869C124.387 28.9549 124.546 29.8309 124.546 30.8149C124.546 31.7809 124.387 32.6539 124.069 33.4339C123.757 34.2079 123.301 34.8229 122.701 35.2789C122.101 35.7349 121.372 35.9629 120.514 35.9629ZM120.514 35.2069C121.276 35.2069 121.912 35.0149 122.422 34.6309C122.938 34.2469 123.325 33.7249 123.583 33.0649C123.841 32.3989 123.97 31.6489 123.97 30.8149C123.97 29.9689 123.838 29.2189 123.574 28.5649C123.316 27.9049 122.929 27.3889 122.413 27.0169C121.903 26.6449 121.27 26.4589 120.514 26.4589C119.74 26.4589 119.098 26.6509 118.588 27.0349C118.084 27.4129 117.709 27.9319 117.463 28.5919C117.217 29.2459 117.094 29.9869 117.094 30.8149C117.094 31.6489 117.223 32.3989 117.481 33.0649C117.739 33.7249 118.12 34.2469 118.624 34.6309C119.134 35.0149 119.764 35.2069 120.514 35.2069ZM123.97 35.6929V28.0429H123.916V22.7329H124.672V35.6929H123.97ZM130.979 35.6929V22.7329H131.735V35.6929H130.979ZM141.655 35.6929V30.5449C141.655 29.8489 141.583 29.2489 141.439 28.7449C141.301 28.2349 141.094 27.8149 140.818 27.4849C140.542 27.1489 140.206 26.8999 139.81 26.7379C139.42 26.5759 138.973 26.4949 138.469 26.4949C137.875 26.4949 137.368 26.5999 136.948 26.8099C136.534 27.0139 136.198 27.2959 135.94 27.6559C135.682 28.0159 135.493 28.4299 135.373 28.8979C135.253 29.3659 135.193 29.8609 135.193 30.3829L134.491 30.4009C134.491 29.2909 134.674 28.3969 135.04 27.7189C135.406 27.0349 135.889 26.5369 136.489 26.2249C137.095 25.9129 137.755 25.7569 138.469 25.7569C138.961 25.7569 139.411 25.8259 139.819 25.9639C140.233 26.1019 140.599 26.3029 140.917 26.5669C141.241 26.8249 141.514 27.1429 141.736 27.5209C141.958 27.8989 142.126 28.3309 142.24 28.8169C142.354 29.2969 142.411 29.8249 142.411 30.4009V35.6929H141.655ZM134.437 35.6929V25.9729H135.139V27.9529H135.193V35.6929H134.437ZM148.302 35.9449C147.204 35.9449 146.292 35.7169 145.566 35.2609C144.84 34.7989 144.39 34.1629 144.216 33.3529L144.99 33.2089C145.152 33.8089 145.53 34.2889 146.124 34.6489C146.724 35.0089 147.456 35.1889 148.32 35.1889C149.202 35.1889 149.901 34.9999 150.417 34.6219C150.939 34.2439 151.2 33.7309 151.2 33.0829C151.2 32.7289 151.122 32.4409 150.966 32.2189C150.81 31.9909 150.504 31.7839 150.048 31.5979C149.598 31.4119 148.932 31.1989 148.05 30.9589C147.126 30.7069 146.406 30.4639 145.89 30.2299C145.38 29.9899 145.02 29.7229 144.81 29.4289C144.606 29.1289 144.504 28.7629 144.504 28.3309C144.504 27.8149 144.657 27.3589 144.963 26.9629C145.269 26.5669 145.692 26.2579 146.232 26.0359C146.772 25.8139 147.396 25.7029 148.104 25.7029C148.818 25.7029 149.46 25.8229 150.03 26.0629C150.606 26.2969 151.068 26.6269 151.416 27.0529C151.77 27.4729 151.974 27.9589 152.028 28.5109L151.254 28.6549C151.14 27.9769 150.792 27.4429 150.21 27.0529C149.634 26.6569 148.914 26.4589 148.05 26.4589C147.24 26.4469 146.577 26.6119 146.061 26.9539C145.551 27.2959 145.296 27.7429 145.296 28.2949C145.296 28.6009 145.383 28.8649 145.557 29.0869C145.731 29.3029 146.034 29.5009 146.466 29.6809C146.898 29.8609 147.498 30.0469 148.266 30.2389C149.238 30.4849 149.994 30.7339 150.534 30.9859C151.08 31.2379 151.461 31.5319 151.677 31.8679C151.899 32.2039 152.01 32.6209 152.01 33.1189C152.01 34.0009 151.68 34.6939 151.02 35.1979C150.36 35.6959 149.454 35.9449 148.302 35.9449ZM154.182 23.8849V22.7329H154.938V23.8849H154.182ZM154.182 35.6929V25.9729H154.938V35.6929H154.182ZM161.348 40.2829C160.88 40.2829 160.409 40.2169 159.935 40.0849C159.461 39.9529 159.014 39.7279 158.594 39.4099C158.18 39.0979 157.826 38.6689 157.532 38.1229L158.198 37.6729C158.522 38.3389 158.978 38.8099 159.566 39.0859C160.154 39.3679 160.748 39.5089 161.348 39.5089C162.218 39.5089 162.896 39.3439 163.382 39.0139C163.874 38.6899 164.219 38.2039 164.417 37.5559C164.615 36.9139 164.714 36.1129 164.714 35.1529V32.6689H164.786V25.9729H165.488V35.1529C165.488 35.4469 165.482 35.7319 165.47 36.0079C165.458 36.2839 165.434 36.5569 165.398 36.8269C165.302 37.6129 165.092 38.2609 164.768 38.7709C164.45 39.2809 164.009 39.6589 163.445 39.9049C162.881 40.1569 162.182 40.2829 161.348 40.2829ZM161.33 35.9629C160.412 35.9629 159.638 35.7379 159.008 35.2879C158.384 34.8319 157.91 34.2169 157.586 33.4429C157.262 32.6629 157.1 31.7869 157.1 30.8149C157.1 29.8609 157.259 28.9969 157.577 28.2229C157.895 27.4489 158.357 26.8369 158.963 26.3869C159.575 25.9309 160.316 25.7029 161.186 25.7029C162.092 25.7029 162.854 25.9249 163.472 26.3689C164.096 26.8069 164.567 27.4129 164.885 28.1869C165.203 28.9549 165.362 29.8309 165.362 30.8149C165.362 31.7809 165.203 32.6539 164.885 33.4339C164.573 34.2079 164.117 34.8229 163.517 35.2789C162.917 35.7349 162.188 35.9629 161.33 35.9629ZM161.33 35.2069C162.092 35.2069 162.728 35.0149 163.238 34.6309C163.754 34.2469 164.141 33.7249 164.399 33.0649C164.657 32.3989 164.786 31.6489 164.786 30.8149C164.786 29.9689 164.654 29.2189 164.39 28.5649C164.132 27.9049 163.745 27.3889 163.229 27.0169C162.719 26.6449 162.086 26.4589 161.33 26.4589C160.556 26.4589 159.914 26.6509 159.404 27.0349C158.9 27.4129 158.525 27.9319 158.279 28.5919C158.033 29.2459 157.91 29.9869 157.91 30.8149C157.91 31.6489 158.039 32.3989 158.297 33.0649C158.555 33.7249 158.936 34.2469 159.44 34.6309C159.95 35.0149 160.58 35.2069 161.33 35.2069ZM175.229 35.6929V30.5449C175.229 29.8489 175.157 29.2489 175.013 28.7449C174.875 28.2349 174.668 27.8149 174.392 27.4849C174.116 27.1489 173.78 26.8999 173.384 26.7379C172.994 26.5759 172.547 26.4949 172.043 26.4949C171.449 26.4949 170.942 26.5999 170.522 26.8099C170.108 27.0139 169.772 27.2959 169.514 27.6559C169.256 28.0159 169.067 28.4299 168.947 28.8979C168.827 29.3659 168.767 29.8609 168.767 30.3829L168.065 30.4009C168.065 29.2909 168.248 28.3969 168.614 27.7189C168.98 27.0349 169.463 26.5369 170.063 26.2249C170.669 25.9129 171.329 25.7569 172.043 25.7569C172.535 25.7569 172.985 25.8259 173.393 25.9639C173.807 26.1019 174.173 26.3029 174.491 26.5669C174.815 26.8249 175.088 27.1429 175.31 27.5209C175.532 27.8989 175.7 28.3309 175.814 28.8169C175.928 29.2969 175.985 29.8249 175.985 30.4009V35.6929H175.229ZM168.011 35.6929V22.7329H168.713V30.3829H168.767V35.6929H168.011ZM183.352 35.6929C182.866 35.8009 182.386 35.8399 181.912 35.8099C181.438 35.7859 181.015 35.6749 180.643 35.4769C180.271 35.2729 179.992 34.9669 179.806 34.5589C179.662 34.2409 179.581 33.9199 179.563 33.5959C179.545 33.2659 179.536 32.8909 179.536 32.4709V23.2729H180.292V32.4709C180.292 32.8909 180.295 33.2299 180.301 33.4879C180.313 33.7459 180.376 33.9889 180.49 34.2169C180.706 34.6489 181.048 34.9159 181.516 35.0179C181.984 35.1139 182.596 35.0989 183.352 34.9729V35.6929ZM177.25 26.7289V25.9729H183.352V26.7289H177.25ZM188.696 35.9449C187.598 35.9449 186.686 35.7169 185.96 35.2609C185.234 34.7989 184.784 34.1629 184.61 33.3529L185.384 33.2089C185.546 33.8089 185.924 34.2889 186.518 34.6489C187.118 35.0089 187.85 35.1889 188.714 35.1889C189.596 35.1889 190.295 34.9999 190.811 34.6219C191.333 34.2439 191.594 33.7309 191.594 33.0829C191.594 32.7289 191.516 32.4409 191.36 32.2189C191.204 31.9909 190.898 31.7839 190.442 31.5979C189.992 31.4119 189.326 31.1989 188.444 30.9589C187.52 30.7069 186.8 30.4639 186.284 30.2299C185.774 29.9899 185.414 29.7229 185.204 29.4289C185 29.1289 184.898 28.7629 184.898 28.3309C184.898 27.8149 185.051 27.3589 185.357 26.9629C185.663 26.5669 186.086 26.2579 186.626 26.0359C187.166 25.8139 187.79 25.7029 188.498 25.7029C189.212 25.7029 189.854 25.8229 190.424 26.0629C191 26.2969 191.462 26.6269 191.81 27.0529C192.164 27.4729 192.368 27.9589 192.422 28.5109L191.648 28.6549C191.534 27.9769 191.186 27.4429 190.604 27.0529C190.028 26.6569 189.308 26.4589 188.444 26.4589C187.634 26.4469 186.971 26.6119 186.455 26.9539C185.945 27.2959 185.69 27.7429 185.69 28.2949C185.69 28.6009 185.777 28.8649 185.951 29.0869C186.125 29.3029 186.428 29.5009 186.86 29.6809C187.292 29.8609 187.892 30.0469 188.66 30.2389C189.632 30.4849 190.388 30.7339 190.928 30.9859C191.474 31.2379 191.855 31.5319 192.071 31.8679C192.293 32.2039 192.404 32.6209 192.404 33.1189C192.404 34.0009 192.074 34.6939 191.414 35.1979C190.754 35.6959 189.848 35.9449 188.696 35.9449Z" fill="#9B9B9B"/>
<path d="M277.62 29.9999L272.866 34.7533L275.243 37.13L282.373 29.9999L275.243 22.8699L268.113 29.9999L270.489 32.3766L275.243 27.6233L277.62 29.9999Z" fill="#9B9B9B"/>
<path d="M272.866 39.5067L270.489 37.13L263.542 30.1829L263.359 29.9999L272.867 20.4931L270.489 18.1165L258.606 29.9999L270.489 41.8834L272.866 39.5067Z" fill="#9B9B9B"/>
<path d="M294.129 29.9471H295.958V33.5383C294.841 34.3066 293.522 34.7291 292.166 34.7533C291.523 34.7803 290.881 34.6771 290.278 34.4498C289.676 34.2225 289.126 33.8758 288.66 33.4306C288.195 32.9854 287.825 32.4508 287.572 31.859C287.318 31.2671 287.187 30.6301 287.186 29.9863C287.186 27.2882 289.375 25.2466 292.286 25.2466C293.657 25.2501 294.984 25.7313 296.039 26.6072L294.85 28.117C294.152 27.4685 293.24 27.098 292.287 27.0754C291.904 27.0763 291.525 27.1526 291.171 27.3001C290.817 27.4475 290.496 27.6632 290.226 27.9348C289.955 28.2064 289.741 28.5286 289.595 28.883C289.449 29.2374 289.375 29.617 289.376 30.0003C289.377 30.3835 289.453 30.7628 289.601 31.1165C289.748 31.4702 289.964 31.7914 290.235 32.0617C290.507 32.332 290.829 32.5462 291.184 32.692C291.538 32.8378 291.918 32.9124 292.301 32.9114C292.941 32.8817 293.566 32.7082 294.13 32.404L294.129 29.9471Z" fill="#9B9B9B"/>
<path d="M304.92 25.3132V27.0625H299.912V29.0898H304.427V30.8414H299.912V32.9115H305.066V34.6608H297.802V25.3132H304.92Z" fill="#9B9B9B"/>
<path d="M313.84 25.3132V27.0625H308.833V29.0898H313.348V30.8414H308.833V32.9115H313.988V34.6608H306.723V25.3132H313.84Z" fill="#9B9B9B"/>
<path d="M321.788 34.6608L319.103 30.8545L317.753 32.3488V34.6608H315.647V25.3132H317.756V29.5586L321.644 25.3132H324.084L320.572 29.211L324.324 34.6608H321.788Z" fill="#9B9B9B"/>
<path d="M332.402 25.3132L332.389 27.0625H327.794V29.3584H332.012V31.1231H327.794V34.6608H325.688V25.3132H332.402Z" fill="#9B9B9B"/>
<path d="M336.413 25.3132V32.8194H340.419V34.6614H334.304V25.3132H336.413Z" fill="#9B9B9B"/>
<path d="M347.899 32.8462H343.573L342.839 34.6608H340.661L344.722 25.3132H346.899L350.892 34.6608H348.634L347.899 32.8462ZM347.217 31.1492L345.748 27.517L344.262 31.1492H347.217Z" fill="#9B9B9B"/>
<path d="M357.608 34.6608L356.122 31.987H353.971V34.6608H351.863V25.3132H355.922C358.365 25.3132 359.754 26.4879 359.754 28.5562C359.802 29.1773 359.66 29.7981 359.348 30.337C359.035 30.8759 358.567 31.3078 358.005 31.5758L359.995 34.6608H357.608ZM353.971 30.2288H355.922C357.085 30.2288 357.75 29.6941 357.75 28.6246C357.75 27.5836 357.085 27.0625 355.922 27.0625H353.971V30.2288Z" fill="#9B9B9B"/>
<path d="M367.98 25.3132V27.0625H362.974V29.0898H367.486V30.8414H362.974V32.9115H368.127V34.6608H360.863V25.3132H367.98Z" fill="#9B9B9B"/>
<path d="M436.338 34.9809C434.586 34.9809 433.405 34.4476 433.405 34.4476V32.9238C433.405 32.9238 435.271 33.4952 436.319 33.4952C437.271 33.4952 438.243 33.3238 438.243 32.1618C438.243 31.2666 437.576 31.0571 436.757 30.8476L435.995 30.619C435.005 30.3333 433.367 29.9142 433.367 27.9142C433.367 25.6857 435.176 25.1333 437.062 25.1333C438.738 25.1333 439.691 25.6857 439.691 25.6857V27.1523C439.691 27.1523 438.433 26.5809 436.967 26.5809C435.786 26.5809 435.043 26.8285 435.043 27.838C435.043 28.7142 435.729 28.9428 436.548 29.1333L437.462 29.3999C438.548 29.6857 439.938 30.3142 439.938 32.1238C439.938 34.3714 438.319 34.9809 436.338 34.9809ZM446.281 34.9809C448.033 34.9809 450.681 34.4476 450.681 30.0666C450.681 25.7428 447.957 25.1523 446.281 25.1523C444.471 25.1523 441.862 25.8761 441.862 30.0666C441.862 34.3904 444.452 34.9809 446.281 34.9809ZM446.281 26.5047C447.252 26.5047 448.891 26.7714 448.891 30.0857C448.891 33.3047 447.138 33.6666 446.281 33.6666C445.538 33.6666 443.671 33.3999 443.671 30.0857C443.671 26.7904 445.31 26.5047 446.281 26.5047ZM452.986 34.8095H454.757V22.238H452.986V34.8095ZM465.119 34.8095V28.4095C465.119 25.9333 463.71 25.1523 461.614 25.1523C459.671 25.1523 458.052 25.819 458.052 25.819V27.2666C458.052 27.2666 459.843 26.5999 461.348 26.5999C462.586 26.5999 463.31 26.8857 463.31 28.1238V28.9428H461.252C459.729 28.9428 457.271 29.438 457.271 32.0666C457.271 34.4666 458.852 34.9809 460.3 34.9809C462.3 34.9809 463.386 33.5714 463.386 33.5714L463.557 34.8095H465.119ZM463.348 32.3523C463.348 32.3523 462.071 33.5904 460.776 33.5904C459.843 33.5904 459.081 33.2285 459.081 32.0095C459.081 30.4666 460.033 30.0476 461.652 30.0285L463.348 30.0095V32.3523ZM471.576 26.7714C472.471 26.7714 473.062 27.038 473.062 27.038V25.419C473.062 25.419 472.681 25.1523 471.786 25.1523C470.167 25.1523 469.576 26.638 469.576 26.638L469.329 25.3428H467.919V34.7904H469.691V27.8952C469.691 27.9142 470.51 26.7714 471.576 26.7714ZM489.633 25.3428H487.633L486.491 30.7714C486.186 32.1809 485.9 33.9904 485.9 33.9904C485.9 33.9904 485.5 32.0095 485.138 30.7714L483.519 25.3428H480.948L479.329 30.7714C478.948 32.0285 478.586 33.9904 478.586 33.9904C478.586 33.9904 478.281 32.0285 478.014 30.7714L476.871 25.3428H474.833L477.329 34.7904H479.786L481.252 29.7428C481.633 28.4476 482.224 26.1999 482.224 26.1999C482.224 26.1999 482.795 28.4095 483.176 29.7618L484.643 34.7904H487.119L489.633 25.3428ZM491.843 34.8095H493.614V25.3047H491.843V34.8095ZM504.814 34.8095V28.3523C504.814 25.9333 503.5 25.1714 501.729 25.1714C499.71 25.1714 498.148 26.6952 498.148 26.6952L497.786 25.3618H496.414V34.8095H498.186V27.8952C498.186 27.8952 499.729 26.6952 501.31 26.6952C502.529 26.6952 503.005 27.1333 503.005 28.3142V34.7904H504.795L504.814 34.8095ZM515.462 34.8095V22.238H513.69V26.1428C513.69 26.1428 512.891 25.1904 511.195 25.1904C509.938 25.1904 506.929 25.7809 506.929 30.1047C506.929 34.3333 509.367 34.9999 510.852 34.9999C512.91 34.9999 513.9 33.6285 513.9 33.6285L514.09 34.8285H515.462V34.8095ZM513.69 32.4857C513.69 32.4857 512.471 33.5714 511.195 33.5714C510.091 33.5714 508.7 33.1904 508.7 30.0666C508.7 27.1142 510.071 26.5999 511.386 26.5999C512.7 26.5999 513.71 27.5333 513.71 27.5333V32.4857H513.69ZM520.948 34.9809C522.929 34.9809 524.548 34.3904 524.548 32.1047C524.548 30.3333 523.157 29.6857 522.071 29.3809L521.157 29.1142C520.338 28.8857 519.652 28.6952 519.652 27.819C519.652 26.8095 520.395 26.5618 521.576 26.5618C523.043 26.5618 524.3 27.1333 524.3 27.1333V25.6666C524.3 25.6666 523.348 25.1142 521.671 25.1142C519.786 25.1142 517.976 25.6476 517.976 27.8952C517.976 29.8952 519.614 30.3142 520.605 30.5999L521.367 30.8285C522.186 31.0761 522.852 31.2666 522.852 32.1428C522.852 33.3047 521.919 33.4761 520.929 33.4761C519.862 33.4761 518.014 32.9047 518.014 32.9047V34.4285C517.995 34.4476 519.195 34.9809 520.948 34.9809Z" fill="#9B9B9B"/>
<path d="M532.852 19.5905C531.576 19.9524 530.281 20.2381 529.005 20.6381C526.414 18.2952 523.119 16.7714 519.462 16.3714C522.319 14.3333 528.548 10.5619 537.5 10.5429L535.233 12.581C535.233 12.581 544.643 12.2381 547.024 9C547.005 9.30476 546.795 9.70476 546.7 9.97143C546.014 11.9714 544.795 13.5714 543.271 14.8095C541.786 16.0286 540.09 16.8857 538.376 17.5905C536.643 18.3333 534.871 19.0381 533.062 19.5333C533.024 19.5524 532.948 19.5714 532.852 19.5905ZM547.633 19.2667C547.633 19.2667 538.948 18.6 529.919 21.4952C531.119 22.7524 532.11 24.181 532.89 25.7429C537.633 23.1143 544.224 19.7429 547.633 19.2667ZM533.481 27.1143C534.033 28.5238 534.395 30.0286 534.567 31.6095L542.833 23.0952L533.481 27.1143ZM537.957 31.5905C538.338 31.5905 538.7 31.3429 538.7 30.8667C538.7 30.3905 538.338 30.1429 537.957 30.1429C537.576 30.1429 537.214 30.3905 537.214 30.8667C537.214 31.3619 537.576 31.5905 537.957 31.5905ZM537.957 30.3333C538.262 30.3333 538.51 30.4857 538.51 30.8857C538.51 31.2667 538.243 31.4381 537.957 31.4381C537.671 31.4381 537.405 31.2667 537.405 30.8857C537.386 30.4857 537.652 30.3333 537.957 30.3333ZM538.262 31.2286L538.205 31.0762C538.186 31.019 538.148 30.9619 538.11 30.9238C538.186 30.8857 538.224 30.8476 538.224 30.7524C538.224 30.5619 538.071 30.5238 537.919 30.5238H537.69V31.2476H537.843V30.9619H537.938C537.976 30.981 537.995 31.0571 538.014 31.1143L538.052 31.2286H538.262ZM537.938 30.6381C538.052 30.6381 538.071 30.6571 538.071 30.7333C538.071 30.8095 538.033 30.8476 537.881 30.8476V30.6381H537.938Z" fill="#9B9B9B"/>
<path d="M476.68 48.18C476.048 48.18 475.518 48.03 475.09 47.73C474.662 47.43 474.34 47.022 474.124 46.506C473.908 45.986 473.8 45.404 473.8 44.76C473.8 44.108 473.908 43.524 474.124 43.008C474.34 42.492 474.656 42.086 475.072 41.79C475.492 41.49 476.01 41.34 476.626 41.34C477.238 41.34 477.768 41.49 478.216 41.79C478.668 42.086 479.018 42.492 479.266 43.008C479.514 43.52 479.638 44.104 479.638 44.76C479.638 45.408 479.516 45.99 479.272 46.506C479.028 47.022 478.684 47.43 478.24 47.73C477.796 48.03 477.276 48.18 476.68 48.18ZM473.554 50.88V41.52H474.832V46.068H475.012V50.88H473.554ZM476.458 46.884C476.834 46.884 477.144 46.79 477.388 46.602C477.632 46.414 477.812 46.16 477.928 45.84C478.048 45.516 478.108 45.156 478.108 44.76C478.108 44.368 478.048 44.012 477.928 43.692C477.808 43.368 477.622 43.112 477.37 42.924C477.118 42.732 476.798 42.636 476.41 42.636C476.042 42.636 475.742 42.726 475.51 42.906C475.278 43.082 475.106 43.33 474.994 43.65C474.886 43.966 474.832 44.336 474.832 44.76C474.832 45.18 474.886 45.55 474.994 45.87C475.106 46.19 475.28 46.44 475.516 46.62C475.756 46.796 476.07 46.884 476.458 46.884ZM481.081 40.536V39.21H482.527V40.536H481.081ZM481.081 48V41.52H482.527V48H481.081ZM488.806 48V44.88C488.806 44.676 488.792 44.45 488.764 44.202C488.736 43.954 488.67 43.716 488.566 43.488C488.466 43.256 488.314 43.066 488.11 42.918C487.91 42.77 487.638 42.696 487.294 42.696C487.11 42.696 486.928 42.726 486.748 42.786C486.568 42.846 486.404 42.95 486.256 43.098C486.112 43.242 485.996 43.442 485.908 43.698C485.82 43.95 485.776 44.274 485.776 44.67L484.918 44.304C484.918 43.752 485.024 43.252 485.236 42.804C485.452 42.356 485.768 42 486.184 41.736C486.6 41.468 487.112 41.334 487.72 41.334C488.2 41.334 488.596 41.414 488.908 41.574C489.22 41.734 489.468 41.938 489.652 42.186C489.836 42.434 489.972 42.698 490.06 42.978C490.148 43.258 490.204 43.524 490.228 43.776C490.256 44.024 490.27 44.226 490.27 44.382V48H488.806ZM484.312 48V41.52H485.602V43.53H485.776V48H484.312ZM494.56 51.06C494.2 51.06 493.854 51.004 493.522 50.892C493.194 50.78 492.898 50.618 492.634 50.406C492.37 50.198 492.154 49.946 491.986 49.65L493.318 48.99C493.442 49.226 493.616 49.4 493.84 49.512C494.068 49.628 494.31 49.686 494.566 49.686C494.866 49.686 495.134 49.632 495.37 49.524C495.606 49.42 495.788 49.264 495.916 49.056C496.048 48.852 496.11 48.596 496.102 48.288V46.446H496.282V41.52H497.548V48.312C497.548 48.476 497.54 48.632 497.524 48.78C497.512 48.932 497.49 49.08 497.458 49.224C497.362 49.644 497.178 49.988 496.906 50.256C496.634 50.528 496.296 50.73 495.892 50.862C495.492 50.994 495.048 51.06 494.56 51.06ZM494.434 48.18C493.838 48.18 493.318 48.03 492.874 47.73C492.43 47.43 492.086 47.022 491.842 46.506C491.598 45.99 491.476 45.408 491.476 44.76C491.476 44.104 491.598 43.52 491.842 43.008C492.09 42.492 492.44 42.086 492.892 41.79C493.344 41.49 493.876 41.34 494.488 41.34C495.104 41.34 495.62 41.49 496.036 41.79C496.456 42.086 496.774 42.492 496.99 43.008C497.206 43.524 497.314 44.108 497.314 44.76C497.314 45.404 497.206 45.986 496.99 46.506C496.774 47.022 496.452 47.43 496.024 47.73C495.596 48.03 495.066 48.18 494.434 48.18ZM494.656 46.884C495.044 46.884 495.356 46.796 495.592 46.62C495.832 46.44 496.006 46.19 496.114 45.87C496.226 45.55 496.282 45.18 496.282 44.76C496.282 44.336 496.226 43.966 496.114 43.65C496.006 43.33 495.836 43.082 495.604 42.906C495.372 42.726 495.072 42.636 494.704 42.636C494.316 42.636 493.996 42.732 493.744 42.924C493.492 43.112 493.306 43.368 493.186 43.692C493.066 44.012 493.006 44.368 493.006 44.76C493.006 45.156 493.064 45.516 493.18 45.84C493.3 46.16 493.482 46.414 493.726 46.602C493.97 46.79 494.28 46.884 494.656 46.884ZM501.828 48.18C501.232 48.18 500.712 48.03 500.268 47.73C499.824 47.43 499.48 47.022 499.236 46.506C498.992 45.99 498.87 45.408 498.87 44.76C498.87 44.104 498.992 43.52 499.236 43.008C499.484 42.492 499.834 42.086 500.286 41.79C500.738 41.49 501.27 41.34 501.882 41.34C502.498 41.34 503.014 41.49 503.43 41.79C503.85 42.086 504.168 42.492 504.384 43.008C504.6 43.524 504.708 44.108 504.708 44.76C504.708 45.404 504.6 45.986 504.384 46.506C504.168 47.022 503.846 47.43 503.418 47.73C502.99 48.03 502.46 48.18 501.828 48.18ZM502.05 46.884C502.438 46.884 502.75 46.796 502.986 46.62C503.226 46.44 503.4 46.19 503.508 45.87C503.62 45.55 503.676 45.18 503.676 44.76C503.676 44.336 503.62 43.966 503.508 43.65C503.4 43.33 503.23 43.082 502.998 42.906C502.766 42.726 502.466 42.636 502.098 42.636C501.71 42.636 501.39 42.732 501.138 42.924C500.886 43.112 500.7 43.368 500.58 43.692C500.46 44.012 500.4 44.368 500.4 44.76C500.4 45.156 500.458 45.516 500.574 45.84C500.694 46.16 500.876 46.414 501.12 46.602C501.364 46.79 501.674 46.884 502.05 46.884ZM503.676 48V43.452H503.496V39.36H504.954V48H503.676ZM509.498 48.18C508.85 48.18 508.284 48.034 507.8 47.742C507.316 47.45 506.94 47.048 506.672 46.536C506.408 46.02 506.276 45.428 506.276 44.76C506.276 44.08 506.412 43.484 506.684 42.972C506.956 42.46 507.334 42.06 507.818 41.772C508.302 41.484 508.862 41.34 509.498 41.34C510.15 41.34 510.718 41.486 511.202 41.778C511.686 42.07 512.062 42.474 512.33 42.99C512.598 43.502 512.732 44.092 512.732 44.76C512.732 45.432 512.596 46.026 512.324 46.542C512.056 47.054 511.68 47.456 511.196 47.748C510.712 48.036 510.146 48.18 509.498 48.18ZM509.498 46.824C510.074 46.824 510.502 46.632 510.782 46.248C511.062 45.864 511.202 45.368 511.202 44.76C511.202 44.132 511.06 43.632 510.776 43.26C510.492 42.884 510.066 42.696 509.498 42.696C509.11 42.696 508.79 42.784 508.538 42.96C508.29 43.132 508.106 43.374 507.986 43.686C507.866 43.994 507.806 44.352 507.806 44.76C507.806 45.388 507.948 45.89 508.232 46.266C508.52 46.638 508.942 46.824 509.498 46.824ZM521.836 48V44.064C521.836 43.62 521.726 43.274 521.506 43.026C521.286 42.774 520.988 42.648 520.612 42.648C520.38 42.648 520.172 42.702 519.988 42.81C519.804 42.914 519.658 43.07 519.55 43.278C519.442 43.482 519.388 43.726 519.388 44.01L518.746 43.632C518.742 43.184 518.842 42.79 519.046 42.45C519.254 42.106 519.534 41.838 519.886 41.646C520.238 41.454 520.63 41.358 521.062 41.358C521.778 41.358 522.326 41.574 522.706 42.006C523.09 42.434 523.282 42.998 523.282 43.698V48H521.836ZM514.042 48V41.52H515.32V43.53H515.5V48H514.042ZM517.948 48V44.082C517.948 43.63 517.838 43.278 517.618 43.026C517.398 42.774 517.098 42.648 516.718 42.648C516.35 42.648 516.054 42.774 515.83 43.026C515.61 43.278 515.5 43.606 515.5 44.01L514.852 43.578C514.852 43.158 514.956 42.78 515.164 42.444C515.372 42.108 515.652 41.844 516.004 41.652C516.36 41.456 516.758 41.358 517.198 41.358C517.682 41.358 518.086 41.462 518.41 41.67C518.738 41.874 518.982 42.154 519.142 42.51C519.306 42.862 519.388 43.26 519.388 43.704V48H517.948Z" fill="#9B9B9B"/>
<defs>
<linearGradient id="paint0_linear_245_1216" x1="17.0078" y1="32.5572" x2="25.9569" y2="41.5464" gradientUnits="userSpaceOnUse">
<stop stop-color="#212121" stop-opacity="0.2"/>
<stop offset="1" stop-color="#212121" stop-opacity="0"/>
</linearGradient>
<radialGradient id="paint1_radial_245_1216" cx="0" cy="0" r="1" gradientUnits="userSpaceOnUse" gradientTransform="translate(1.05624 19.9183) scale(34.5486 34.3947)">
<stop stop-color="white" stop-opacity="0.1"/>
<stop offset="1" stop-color="white" stop-opacity="0"/>
</radialGradient>
</defs>
</svg>
