<svg width="24" height="24" viewBox="0 0 24 24" fill="none" xmlns="http://www.w3.org/2000/svg">
<path d="M12 0.333374C5.55998 0.333374 0.333313 5.56004 0.333313 12C0.333313 18.44 5.55998 23.6667 12 23.6667C18.44 23.6667 23.6666 18.44 23.6666 12C23.6666 5.56004 18.44 0.333374 12 0.333374ZM2.66665 12C2.66665 11.2884 2.75998 10.5884 2.91165 9.92338L8.48831 15.5V16.6667C8.48831 17.95 9.53831 19 10.8216 19V21.2517C6.23665 20.6684 2.66665 16.7484 2.66665 12ZM18.8716 18.3C18.5683 17.355 17.705 16.6667 16.655 16.6667H15.4883V13.1667C15.4883 12.525 14.9633 12 14.3216 12H7.32165V9.66671H9.65498C10.2966 9.66671 10.8216 9.14171 10.8216 8.50004V6.16671H13.155C14.4383 6.16671 15.4883 5.11671 15.4883 3.83337V3.35504C18.9066 4.73171 21.3333 8.09171 21.3333 12C21.3333 14.4267 20.3883 16.6434 18.8716 18.3Z" fill="#1A1A1A"/>
</svg>
