<svg width="18" height="20" viewBox="0 0 18 20" fill="none" xmlns="http://www.w3.org/2000/svg">
<path d="M5.01633 5.86568H5.01602C3.80663 5.86681 1.57366 7.09514 1.57366 10.5657C1.57366 12.237 2.30924 13.8809 3.14589 15.1233C3.56621 15.7475 4.01901 16.2808 4.43221 16.6762C4.63871 16.8737 4.83893 17.0403 5.02365 17.1672C5.20338 17.2907 5.3885 17.3906 5.56274 17.433L5.60587 17.4435L5.65023 17.4422C5.88048 17.4353 6.04796 17.3668 6.37909 17.2244C6.91631 16.9935 7.69482 16.6596 8.90165 16.653C10.1289 16.6596 10.9102 16.9939 11.4464 17.2244L11.4466 17.2244C11.788 17.371 11.955 17.4412 12.1771 17.4442L12.2202 17.4447L12.2619 17.4342C12.4299 17.3917 12.6237 17.2813 12.8167 17.1439C13.0179 17.0005 13.2466 16.8069 13.4878 16.5689C13.9705 16.0927 14.5153 15.4268 15.0012 14.6006L15.1282 14.3847L14.9534 14.2052C13.9943 13.221 13.4382 11.8922 13.4382 10.4598C13.4382 9.19335 13.8811 7.99665 14.6579 7.05228L14.8693 6.79534L14.6095 6.58756C13.9812 6.08519 13.292 5.86568 12.8092 5.86568C12.5563 5.86568 12.2917 5.92493 12.0356 6.0032C11.7794 6.08148 11.5102 6.1858 11.2478 6.28749L11.2439 6.289L11.2438 6.28902C10.527 6.56694 9.77482 6.85557 8.91276 6.85557C8.05078 6.85557 7.30056 6.567 6.58357 6.28902C6.31908 6.18625 6.04813 6.08133 5.79027 6.00277C5.53369 5.92459 5.26905 5.86568 5.01633 5.86568ZM8.91446 17.8985L8.91107 17.8986C8.02207 17.9032 7.45716 18.119 6.97598 18.3235C6.94274 18.3376 6.91013 18.3516 6.87806 18.3653C6.45205 18.5475 6.11943 18.6897 5.63107 18.6897H5.60321C5.20612 18.6897 4.6748 18.4643 4.07555 18.001C3.48602 17.5452 2.87028 16.8894 2.31079 16.1037C1.18815 14.5272 0.328125 12.4797 0.328125 10.5657C0.328125 6.33952 3.21019 4.62101 5.01649 4.62014C5.67913 4.62018 6.2975 4.84401 6.94141 5.09301C6.97759 5.107 7.01394 5.12111 7.05047 5.1353C7.63964 5.36408 8.27302 5.61004 8.91276 5.61004C9.55251 5.61004 10.1859 5.36408 10.7751 5.1353C10.8116 5.12111 10.8479 5.107 10.8841 5.09301C11.5281 4.84399 12.1465 4.62014 12.8092 4.62014C13.9774 4.62014 15.5885 5.3396 16.5855 6.98445C15.4464 7.71484 14.6819 8.99103 14.6819 10.4598C14.6819 11.977 15.4965 13.2892 16.6984 14.0058C16.1446 15.2699 15.3631 16.4202 14.5523 17.2678C14.1183 17.7213 13.6822 18.0817 13.2752 18.3267C12.8642 18.5741 12.5063 18.6897 12.2223 18.6897H12.1945C11.7067 18.6897 11.3741 18.5476 10.9481 18.3654C10.9159 18.3516 10.8832 18.3377 10.8499 18.3235C10.3686 18.119 9.80344 17.9032 8.91446 17.8985ZM8.89132 3.7235C8.96746 2.88759 9.30502 1.95928 9.79144 1.4273C10.3465 0.825042 11.1587 0.426903 12.0257 0.344162C11.9821 1.27045 11.7526 1.95731 11.2646 2.52295C10.7327 3.13657 9.80555 3.62238 8.89132 3.7235Z" fill="#9B9B9B" stroke="white" stroke-width="0.65625"/>
</svg>
