<svg width="89" height="36" viewBox="0 0 89 36" fill="none" xmlns="http://www.w3.org/2000/svg">
<path d="M79.0646 34.9301C77.4101 34.4916 76.637 34.2065 76.6392 34.0356C76.6405 33.9399 76.7616 33.4648 76.9085 32.9799L77.1756 32.0983L77.7341 32.3937C79.6801 33.4227 82.9695 33.3717 84.566 32.2877C85.311 31.7819 85.9897 30.8005 86.2804 29.8089C86.5293 28.9596 86.7708 25.8074 86.587 25.8074C86.5265 25.8074 86.1435 26.1836 85.7359 26.6433C83.3892 29.2898 78.8246 28.9942 76.8786 26.0698C75.8982 24.5964 75.6679 23.6762 75.6588 21.1939C75.6519 19.3431 75.7035 18.8312 75.9924 17.8843C76.4239 16.4699 77.4021 14.9597 78.3818 14.1956C79.7746 13.1092 82.1258 12.6772 83.807 13.1987C84.6466 13.4591 85.7068 14.2203 86.1201 14.8592C86.287 15.1173 86.4748 15.3286 86.5374 15.3289C86.5999 15.3291 86.6512 14.8719 86.6512 14.3128V13.2962H87.7891H88.9271L88.9251 20.7639C88.9231 27.7126 88.9016 28.3179 88.6189 29.4748C87.8148 32.764 86.5006 34.1668 83.5611 34.8732C82.0409 35.2386 80.3117 35.2604 79.0649 34.9301H79.0646ZM83.456 26.343C84.4828 26.0287 85.5889 24.9845 86.1562 23.7938C86.5576 22.9514 86.5753 22.8145 86.5753 20.5567C86.5753 18.3978 86.545 18.1343 86.2158 17.4289C85.4671 15.8245 83.5578 14.7013 81.9708 14.9317C79.2334 15.329 77.6421 17.9196 77.892 21.5717C78.0361 23.6774 78.8797 25.3076 80.1793 25.992C81.4262 26.6485 82.1905 26.7304 83.456 26.343ZM4.29928 32.2654L0.468079 29.4995V14.9077C0.468079 6.88218 0.52498 0.315857 0.59452 0.315857C0.664064 0.315857 0.766328 0.362615 0.821774 0.419763C0.877223 0.476915 2.54436 1.02705 4.52653 1.64229L8.13048 2.76091L8.15871 12.603L8.18695 22.445L4.7293 25.6275C2.8276 27.3779 1.17818 28.8695 1.06393 28.9423C0.949675 29.0151 0.902042 29.1219 0.958075 29.1796C1.01411 29.2374 2.5484 28.4778 4.36762 27.4916C6.18684 26.5054 10.2528 24.3006 13.4031 22.5921C16.5534 20.8836 19.131 19.4446 19.131 19.3943C19.131 19.344 17.9943 18.7783 16.6051 18.1371C14.2696 17.0592 14.0627 16.9302 13.8583 16.424C13.7367 16.123 13.4712 15.5129 13.2684 15.0683C11.8782 12.0211 10.8253 9.61346 10.8639 9.57038C10.9113 9.51762 13.8344 10.4169 22.507 13.1522L27.6279 14.7673V19.0202V23.2731L24.7071 25.0387C23.1006 26.0098 18.9527 28.5397 15.4894 30.6607C9.75976 34.1697 8.30836 35.0374 8.17595 35.0329C8.15094 35.0321 6.40644 33.7867 4.29928 32.2654H4.29928ZM43.332 28.3708C42.1816 28.0725 41.1 27.3735 40.6642 26.6467C40.4906 26.3571 40.2858 26.1202 40.2092 26.1202C40.1325 26.1202 40.0698 26.5777 40.0698 27.1368V28.1533L38.9698 28.1533L37.8697 28.1533L37.9097 17.1901C37.9411 8.56166 37.9896 6.24235 38.1373 6.29973C38.2405 6.33982 38.7165 6.4894 39.1951 6.63212L40.0652 6.89161L40.1055 11.4123L40.1457 15.9331L40.8326 15.0447C41.3421 14.3858 41.7888 14.015 42.5622 13.609C43.5599 13.0853 43.6744 13.0616 45.2165 13.0616C46.7324 13.0616 46.8885 13.0922 47.8428 13.5765C50.0286 14.6856 51.0679 16.8973 51.0548 20.412C51.0408 24.1511 49.5313 27.0469 47.1003 27.9981C46.2337 28.3372 44.0394 28.5542 43.332 28.3708H43.332ZM46.0676 26.1529C47.9018 25.1737 48.9901 22.7546 48.8265 20.021C48.7441 18.6451 48.6925 18.4046 48.2655 17.4081C47.878 16.5039 47.1862 15.7303 46.3666 15.2847C45.4837 14.8047 43.7446 14.8152 42.7664 15.3064C41.7399 15.8218 40.766 17.0026 40.3897 18.1878C39.9911 19.443 39.9566 22.3549 40.3263 23.5319C40.7093 24.7509 41.9849 26.0231 43.2552 26.4526C43.8834 26.6651 45.4138 26.502 46.0676 26.1529L46.0676 26.1529ZM54.1808 20.7248V13.2962H55.3159H56.4509L56.4918 20.7248L56.5326 28.1534L55.3567 28.1533L54.1808 28.1533V20.7248H54.1808ZM60.4017 20.7248V13.2962H61.5397H62.6777V14.4692C62.6777 15.1143 62.7289 15.6394 62.7915 15.6361C62.8541 15.6329 63.0872 15.3589 63.3096 15.0273C64.6131 13.0833 67.7038 12.3827 69.8957 13.5343C70.5529 13.8797 70.9278 14.2104 71.287 14.7618C72.2469 16.2355 72.2896 16.551 72.3524 22.6405L72.4093 28.1533H71.2702H70.1311L70.0741 22.9533C70.0339 19.2771 69.9599 17.57 69.8214 17.1278C69.5359 16.216 68.5056 15.257 67.5603 15.0233C65.5711 14.5314 63.4187 15.9486 62.8283 18.1389C62.746 18.4443 62.679 20.8093 62.6785 23.4225L62.6776 28.1533H61.5396H60.4017V20.7248H60.4017ZM54.4577 9.53691C54.1233 9.33579 53.8279 8.39005 53.9596 7.94233C54.1692 7.23032 54.6385 6.88424 55.3946 6.88424C56.3123 6.88424 56.8292 7.39134 56.8292 8.29175C56.8292 9.19013 56.3112 9.70071 55.4061 9.69451C55.0243 9.69187 54.5975 9.62097 54.4577 9.53691V9.53691Z" fill="#4B4B4B"/>
</svg>
