<svg width="23" height="19" viewBox="0 0 23 19" fill="none" xmlns="http://www.w3.org/2000/svg">
<path d="M20.4655 2.64314L20.8588 2.39731H20.395H2.65815H2.19431L2.58764 2.64314L11.4561 8.18591L11.5266 8.22997L11.5971 8.18591L20.4655 2.64314ZM20.395 15.966H20.528V15.833V4.74744V4.50743L20.3245 4.63464L11.5266 10.1333L2.72865 4.63464L2.52512 4.50743V4.74744V15.833V15.966H2.65815H20.395ZM20.395 0.446259C21.5409 0.446259 22.4791 1.3844 22.4791 2.53034V15.833C22.4791 16.9789 21.5409 17.917 20.395 17.917H2.65815C1.51221 17.917 0.574066 16.9789 0.574066 15.833V2.53034C0.574066 1.3844 1.51221 0.446259 2.65815 0.446259H20.395Z" fill="#9B9B9B" stroke="#F3F3F3" stroke-width="0.266053"/>
</svg>
