<svg width="24" height="24" viewBox="0 0 24 24" fill="none" xmlns="http://www.w3.org/2000/svg">
<path d="M2.875 0.691895C1.46867 0.691895 0.324997 1.83557 0.324997 3.24189V21.0919C0.324997 22.4982 1.46867 23.6419 2.875 23.6419H11.3169H14.8779H20.725C22.1313 23.6419 23.275 22.4982 23.275 21.0919V3.24189C23.275 1.83557 22.1313 0.691895 20.725 0.691895H2.875ZM2.875 3.24189H20.725L20.7275 21.0919H14.8779V16.0367H17.8936L18.3418 12.5628H14.8979V10.349C14.8978 9.34432 15.1779 8.66563 16.6186 8.66563H18.439V5.56528C17.5528 5.47476 16.6631 5.43075 15.7719 5.4333C13.1276 5.4333 11.3169 7.04725 11.3169 10.0104V12.5678H8.32861V16.0417H11.3169V21.0919H2.875V3.24189Z" fill="#F3F3F3"/>
</svg>
