<svg width="21" height="20" viewBox="0 0 21 20" fill="none" xmlns="http://www.w3.org/2000/svg">
<path d="M15.1875 0.125C13.375 0.125 11.6354 0.96875 10.5 2.30208C9.36459 0.96875 7.62501 0.125 5.81251 0.125C2.60418 0.125 0.0833435 2.64583 0.0833435 5.85417C0.0833435 9.79167 3.62501 13 8.98959 17.875L10.5 19.2396L12.0104 17.8646C17.375 13 20.9167 9.79167 20.9167 5.85417C20.9167 2.64583 18.3958 0.125 15.1875 0.125ZM10.6042 16.3229L10.5 16.4271L10.3958 16.3229C5.43751 11.8333 2.16668 8.86458 2.16668 5.85417C2.16668 3.77083 3.72918 2.20833 5.81251 2.20833C7.41668 2.20833 8.97918 3.23958 9.53126 4.66667H11.4792C12.0208 3.23958 13.5833 2.20833 15.1875 2.20833C17.2708 2.20833 18.8333 3.77083 18.8333 5.85417C18.8333 8.86458 15.5625 11.8333 10.6042 16.3229Z" fill="#868686"/>
</svg>
