<svg width="118" height="22" viewBox="0 0 118 22" fill="none" xmlns="http://www.w3.org/2000/svg">
<path d="M11 0L13.4697 7.60081H21.4616L14.996 12.2984L17.4656 19.8992L11 15.2016L4.53436 19.8992L7.00402 12.2984L0.538379 7.60081H8.53035L11 0Z" fill="#FF7A00"/>
<path d="M35 0L37.4697 7.60081H45.4616L38.996 12.2984L41.4656 19.8992L35 15.2016L28.5344 19.8992L31.004 12.2984L24.5384 7.60081H32.5303L35 0Z" fill="#FF7A00"/>
<path d="M59 0L61.4697 7.60081H69.4616L62.996 12.2984L65.4656 19.8992L59 15.2016L52.5344 19.8992L55.004 12.2984L48.5384 7.60081H56.5303L59 0Z" fill="#FF7A00"/>
<path d="M83 0L85.4697 7.60081H93.4616L86.996 12.2984L89.4656 19.8992L83 15.2016L76.5344 19.8992L79.004 12.2984L72.5384 7.60081H80.5303L83 0Z" fill="#FF7A00"/>
<path d="M107 0L109.47 7.60081H117.462L110.996 12.2984L113.466 19.8992L107 15.2016L100.534 19.8992L103.004 12.2984L96.5384 7.60081H104.53L107 0Z" fill="#FF7A00"/>
</svg>
