<svg width="15" height="17" viewBox="0 0 15 17" fill="none" xmlns="http://www.w3.org/2000/svg">
<path d="M1.34521 0.794984L1.34525 0.795367L1.35452 0.793958C1.35518 0.793924 1.35608 0.793882 1.35728 0.793833L1.37056 0.79325C1.37641 0.792938 1.38412 0.792428 1.39286 0.791455C1.47533 0.782288 1.54948 0.780848 1.61763 0.78953C1.78365 0.81068 1.94262 0.873133 2.07911 0.955595L2.1269 0.984466L2.13151 0.984462L2.23142 1.04172C2.33405 1.10054 2.48221 1.18538 2.65114 1.28143L2.69332 1.30541C3.02688 1.49508 3.47814 1.75168 4.00744 2.0516C5.11112 2.67698 6.55636 3.49495 8.00148 4.31226C10.8917 5.94686 13.7805 7.57898 13.9128 7.65371C14.1698 7.79922 14.42 8.08227 14.425 8.45174C14.43 8.81998 14.1802 9.12325 13.909 9.28771L13.9089 9.28777C13.8152 9.34465 13.6643 9.43043 13.3618 9.60228L13.3 9.63738C12.9573 9.83213 12.4866 10.0992 11.9288 10.415C11.2348 10.8079 10.4074 11.2755 9.53012 11.7713C8.99719 12.0725 8.44585 12.384 7.89481 12.6956C7.63208 12.8442 7.36942 12.9927 7.10885 13.14C5.92344 13.8102 4.78126 14.456 3.873 14.9701C3.38496 15.2464 2.96402 15.4854 2.6409 15.6689L2.51518 15.7403C2.34663 15.836 2.19568 15.9227 2.09295 15.9817L1.97918 16.047L1.96528 16.0549L1.96117 16.0572C1.96008 16.0578 1.95975 16.058 1.95994 16.0579L1.96162 16.057C1.96192 16.0568 1.96517 16.0551 1.96955 16.0531L1.96968 16.053C1.97116 16.0523 1.9783 16.049 1.98767 16.0458C1.99037 16.0448 2.00604 16.0392 2.02693 16.0364C2.04006 16.0351 2.07713 16.0361 2.10068 16.0403C2.13199 16.0519 2.18331 16.0946 2.21826 16.1403C2.20029 16.1507 2.18352 16.1603 2.1681 16.1692C2.12984 16.1911 2.09984 16.2084 2.08013 16.2196L1.95475 16.0604L1.9492 16.0638L1.94916 16.0639C1.94872 16.0641 1.94506 16.0664 1.94068 16.0694C1.68908 16.2165 1.33048 16.2826 1.0254 16.1172C0.71618 15.9496 0.575 15.5937 0.575 15.3019V8.47069V1.77399C0.575 1.4908 0.723527 1.1548 0.980769 0.961228L0.988333 0.955537L0.995324 0.949157C1.03202 0.91567 1.07279 0.886939 1.11667 0.86364L1.11667 0.863642L1.11755 0.863166C1.18805 0.825277 1.2655 0.802082 1.34521 0.794984ZM2.10914 3.10381L1.75833 2.7011V3.23518V8.47069V13.6985V14.2327L2.10916 13.8298L6.66588 8.5974L6.78028 8.46603L6.66586 8.33468L2.10914 3.10381ZM4.90342 3.91926L4.65416 4.22474L7.41417 7.39141L7.56502 7.56448L7.71578 7.39133L8.65279 6.31516L8.81374 6.13031L8.60036 6.00971C8.1836 5.77416 8.04567 5.69615 7.69952 5.50037C7.61926 5.45498 7.52781 5.40326 7.4191 5.34177C7.03626 5.12525 6.67631 4.92176 6.32633 4.72391C5.84439 4.45146 5.38134 4.18968 4.90342 3.91926ZM10.0058 6.8029L9.85093 6.7154L9.74598 6.85905C9.73579 6.873 9.72499 6.8865 9.71362 6.8995L9.71334 6.89982L8.46399 8.33472L8.34958 8.46612L8.46406 8.59746L9.71167 10.0288C9.7243 10.0442 9.73616 10.0602 9.74718 10.0767L9.85025 10.2315L10.0121 10.14C10.3481 9.94993 10.7456 9.72485 11.079 9.536C11.1738 9.48232 11.2635 9.43156 11.345 9.38537C11.7052 9.18141 12.0222 9.00105 12.2938 8.84647C12.4223 8.77333 12.5407 8.70596 12.6488 8.64459L12.9557 8.47022L12.6483 8.29656C12.5361 8.23316 12.2996 8.09944 12.0001 7.9301C11.4231 7.60388 10.6123 7.14545 10.0058 6.8029ZM7.7157 9.54068L7.56486 9.36766L7.41411 9.54076L4.63091 12.7368L4.88019 13.0422C5.24865 12.8339 5.6049 12.6322 5.96763 12.4269C6.39653 12.1842 6.83449 11.9363 7.31239 11.6661C7.54942 11.5321 7.75737 11.4143 7.96381 11.2973C8.17129 11.1797 8.37724 11.0631 8.60966 10.9317L8.82313 10.811L8.66199 10.6261L7.7157 9.54068Z" fill="#9B9B9B" stroke="white" stroke-width="0.4"/>
</svg>
