<svg width="37" height="37" viewBox="0 0 37 37" fill="none" xmlns="http://www.w3.org/2000/svg">
<path d="M37 18.9186C37 17.6088 36.8794 16.3482 36.6583 15.1368H18.8794V22.2916H29.0402C28.603 24.606 27.2714 26.5609 25.2714 27.8756V32.5141H31.3719C34.9397 29.2938 37 24.5518 37 18.9186Z" fill="#4285F4"/>
<path d="M18.8794 37C23.9748 37 28.2512 35.3405 31.3718 32.5141L25.2713 27.8755C23.5829 28.9835 21.417 29.6384 18.8794 29.6384C13.9648 29.6384 9.79896 26.3884 8.31654 22.0158H2.01001V26.807C5.11554 32.8538 11.4974 37 18.8794 37Z" fill="#34A853"/>
<path d="M8.31658 22.0158C7.9397 20.9029 7.72362 19.7212 7.72362 18.5C7.72362 17.2788 7.9397 16.097 8.31658 14.9841V10.1929H2.01005C0.733668 12.6895 0 15.5159 0 18.5C0 21.484 0.733668 24.3105 2.01005 26.807L8.31658 22.0158Z" fill="#FBBC05"/>
<path d="M18.8794 7.36159C21.6532 7.36159 24.1407 8.29226 26.0954 10.124L31.5075 4.82074C28.2412 1.83671 23.9698 0 18.8794 0C11.4974 0 5.11554 4.14613 2.01001 10.193L8.31654 14.9842C9.79896 10.6115 13.9648 7.36159 18.8794 7.36159Z" fill="#EA4335"/>
</svg>
