<svg width="109" height="36" viewBox="0 0 109 36" fill="none" xmlns="http://www.w3.org/2000/svg">
<path d="M27.2168 12.5293H14.5904V16.2766H23.5444C23.1024 21.5298 18.7311 23.7711 14.6056 23.7711C9.32601 23.7711 4.72006 19.6173 4.72006 13.7956C4.72006 8.12464 9.11058 3.75738 14.6167 3.75738C18.8646 3.75738 21.3678 6.46492 21.3678 6.46492L23.9914 3.74828C23.9914 3.74828 20.6234 0 14.4822 0C6.66196 0 0.612732 6.59943 0.612732 13.7288C0.612732 20.7146 6.30392 27.5265 14.6824 27.5265C22.0505 27.5265 27.4454 22.4785 27.4454 15.0133C27.4454 13.4386 27.2158 12.5283 27.2158 12.5283L27.2168 12.5293V12.5293Z" fill="#4B4B4B"/>
<path d="M37.611 13.2909C40.1587 13.2909 42.573 15.3511 42.573 18.6705C42.573 21.9192 40.1689 24.0371 37.5999 24.0371C34.776 24.0371 32.5479 21.7756 32.5479 18.6442C32.5479 15.5797 34.7477 13.2909 37.611 13.2909ZM37.5594 9.81567C32.379 9.81567 28.6651 13.8664 28.6651 18.5906C28.6651 23.3847 32.2667 27.5102 37.6201 27.5102C42.4668 27.5102 46.4365 23.8055 46.4365 18.6938C46.4365 12.8337 41.8185 9.81567 37.5594 9.81567V9.81567Z" fill="#4B4B4B"/>
<path d="M56.9542 13.2909C59.5019 13.2909 61.9162 15.3511 61.9162 18.6705C61.9162 21.9192 59.5121 24.0371 56.9431 24.0371C54.1192 24.0371 51.8911 21.7756 51.8911 18.6442C51.8911 15.5797 54.0909 13.2909 56.9542 13.2909ZM56.9026 9.81567C51.7212 9.81567 48.0083 13.8664 48.0083 18.5906C48.0083 23.3847 51.6099 27.5102 56.9633 27.5102C61.81 27.5102 65.7808 23.8055 65.7808 18.6938C65.7808 12.8337 61.1617 9.81567 56.9026 9.81567V9.81567Z" fill="#4B4B4B"/>
<path d="M76.2195 13.2929C78.5518 13.2929 80.9458 15.2844 80.9458 18.6837C80.9458 22.1397 78.5569 24.0442 76.1679 24.0442C73.6334 24.0442 71.2737 21.986 71.2737 18.7171C71.2737 15.3198 73.7234 13.2929 76.2195 13.2929ZM75.8756 9.82483C71.12 9.82483 67.3818 13.9908 67.3818 18.6655C67.3818 23.9906 71.7157 27.5224 75.7937 27.5224C78.3152 27.5224 79.6553 26.5211 80.6454 25.3722V27.1169C80.6454 30.1693 78.7925 31.9969 75.995 31.9969C73.2925 31.9969 71.9372 29.9872 71.4659 28.8474L68.0655 30.2684C69.2722 32.8192 71.7005 35.4792 76.0233 35.4792C80.7516 35.4792 84.3553 32.5006 84.3553 26.2551V10.3568H80.6454V11.8557C79.5056 10.6269 77.946 9.82584 75.8756 9.82584V9.82483V9.82483Z" fill="#4B4B4B"/>
<path d="M101.002 13.2069C102.619 13.2069 103.782 14.0666 104.276 15.0962L96.3536 18.4076C96.0127 15.8447 98.4411 13.2069 101.002 13.2069V13.2069ZM100.848 9.80457C96.3617 9.80457 92.5962 13.3728 92.5962 18.6392C92.5962 24.2121 96.7935 27.5173 101.279 27.5173C105.021 27.5173 107.319 25.4692 108.691 23.6345L105.632 21.5996C104.838 22.8315 103.512 24.0351 101.297 24.0351C98.8103 24.0351 97.6664 22.6727 96.9584 21.3538L108.821 16.4313L108.205 14.989C107.059 12.1642 104.386 9.80457 100.848 9.80457V9.80457Z" fill="#4B4B4B"/>
<path d="M86.9404 26.9914H90.8364V0.914307H86.9404V26.9914Z" fill="#4B4B4B"/>
</svg>
