<svg width="24" height="24" viewBox="0 0 24 24" fill="none" xmlns="http://www.w3.org/2000/svg">
<path d="M6.89999 0.691895C3.38482 0.691895 0.524994 3.55172 0.524994 7.0669V17.2669C0.524994 20.7821 3.38482 23.6419 6.89999 23.6419H17.1C20.6152 23.6419 23.475 20.7821 23.475 17.2669V7.0669C23.475 3.55172 20.6152 0.691895 17.1 0.691895H6.89999ZM6.89999 3.24189H17.1C19.2088 3.24189 20.925 4.95804 20.925 7.0669V17.2669C20.925 19.3757 19.2088 21.0919 17.1 21.0919H6.89999C4.79114 21.0919 3.07499 19.3757 3.07499 17.2669V7.0669C3.07499 4.95804 4.79114 3.24189 6.89999 3.24189ZM18.375 4.51689C18.0368 4.51689 17.7125 4.65123 17.4734 4.89033C17.2343 5.12944 17.1 5.45374 17.1 5.79189C17.1 6.13005 17.2343 6.45435 17.4734 6.69346C17.7125 6.93256 18.0368 7.0669 18.375 7.0669C18.7131 7.0669 19.0374 6.93256 19.2766 6.69346C19.5157 6.45435 19.65 6.13005 19.65 5.79189C19.65 5.45374 19.5157 5.12944 19.2766 4.89033C19.0374 4.65123 18.7131 4.51689 18.375 4.51689ZM12 5.79189C8.48482 5.79189 5.62499 8.65172 5.62499 12.1669C5.62499 15.6821 8.48482 18.5419 12 18.5419C15.5152 18.5419 18.375 15.6821 18.375 12.1669C18.375 8.65172 15.5152 5.79189 12 5.79189ZM12 8.3419C14.1088 8.3419 15.825 10.058 15.825 12.1669C15.825 14.2757 14.1088 15.9919 12 15.9919C9.89114 15.9919 8.17499 14.2757 8.17499 12.1669C8.17499 10.058 9.89114 8.3419 12 8.3419Z" fill="#F3F3F3"/>
</svg>
