<svg width="19" height="19" viewBox="0 0 19 19" fill="none" xmlns="http://www.w3.org/2000/svg">
<path d="M0.25 5.27778C0.25 2.50568 2.50568 0.25 5.27778 0.25H13.7222C16.4943 0.25 18.75 2.50568 18.75 5.27778V13.7222C18.75 16.4943 16.4943 18.75 13.7222 18.75H5.27778C2.50568 18.75 0.25 16.4943 0.25 13.7222V5.27778ZM13.7222 1.86111H5.27778C3.39382 1.86111 1.86111 3.39382 1.86111 5.27778V13.7222C1.86111 15.6062 3.39382 17.1389 5.27778 17.1389H13.7222C15.6062 17.1389 17.1389 15.6062 17.1389 13.7222V5.27778C17.1389 3.39382 15.6062 1.86111 13.7222 1.86111ZM14.2082 3.65261C14.3592 3.50154 14.5641 3.41667 14.7778 3.41667C14.9914 3.41667 15.1963 3.50154 15.3474 3.65261C15.4985 3.80368 15.5833 4.00858 15.5833 4.22222C15.5833 4.43587 15.4985 4.64077 15.3474 4.79184C15.1963 4.94291 14.9914 5.02778 14.7778 5.02778C14.5641 5.02778 14.3592 4.94291 14.2082 4.79184C14.0571 4.64077 13.9722 4.43587 13.9722 4.22222C13.9722 4.00858 14.0571 3.80368 14.2082 3.65261ZM4.47222 9.5C4.47222 6.7279 6.7279 4.47222 9.5 4.47222C12.2721 4.47222 14.5278 6.7279 14.5278 9.5C14.5278 12.2721 12.2721 14.5278 9.5 14.5278C6.7279 14.5278 4.47222 12.2721 4.47222 9.5ZM12.9167 9.5C12.9167 7.61604 11.384 6.08333 9.5 6.08333C7.61604 6.08333 6.08333 7.61604 6.08333 9.5C6.08333 11.384 7.61604 12.9167 9.5 12.9167C11.384 12.9167 12.9167 11.384 12.9167 9.5Z" fill="#9B9B9B" stroke="white" stroke-width="0.5"/>
</svg>
