<svg width="24" height="12" viewBox="0 0 24 12" fill="none" xmlns="http://www.w3.org/2000/svg">
<path d="M17.8333 0.166748H13.1667V2.50008H17.8333C19.7583 2.50008 21.3333 4.07508 21.3333 6.00008C21.3333 7.92508 19.7583 9.50008 17.8333 9.50008H13.1667V11.8334H17.8333C21.0533 11.8334 23.6667 9.22008 23.6667 6.00008C23.6667 2.78008 21.0533 0.166748 17.8333 0.166748ZM10.8333 9.50008H6.16668C4.24168 9.50008 2.66668 7.92508 2.66668 6.00008C2.66668 4.07508 4.24168 2.50008 6.16668 2.50008H10.8333V0.166748H6.16668C2.94668 0.166748 0.333344 2.78008 0.333344 6.00008C0.333344 9.22008 2.94668 11.8334 6.16668 11.8334H10.8333V9.50008ZM7.33334 4.83341H16.6667V7.16675H7.33334V4.83341Z" fill="#868686"/>
</svg>
