<svg width="24" height="24" viewBox="0 0 24 24" fill="none" xmlns="http://www.w3.org/2000/svg">
<path d="M3.475 0.691895C2.06613 0.691895 0.925003 1.83302 0.925003 3.24189V21.0919C0.925003 22.5008 2.06613 23.6419 3.475 23.6419H21.325C22.7339 23.6419 23.875 22.5008 23.875 21.0919V3.24189C23.875 1.83302 22.7339 0.691895 21.325 0.691895H3.475ZM3.475 3.24189H21.325V21.0919H3.475V3.24189ZM7.01861 4.92031C5.92593 4.92031 5.27046 5.57716 5.27046 6.45181C5.27046 7.32646 5.92601 7.98081 6.90904 7.98081C8.00171 7.98081 8.65718 7.32646 8.65718 6.45181C8.65718 5.57716 8.00163 4.92031 7.01861 4.92031ZM5.35762 9.6169V18.5419H8.575V9.6169H5.35762ZM11.2296 9.6169V18.5419H14.447V13.6635C14.447 12.2113 15.4831 12.0025 15.7942 12.0025C16.1053 12.0025 16.9372 12.3146 16.9372 13.6635V18.5419H20.05V13.6635C20.05 10.8624 18.8053 9.6169 17.2485 9.6169C15.6917 9.6169 14.8614 10.1353 14.447 10.862V9.6169H11.2296Z" fill="#F3F3F3"/>
</svg>
