<svg width="22" height="22" viewBox="0 0 22 22" fill="none" xmlns="http://www.w3.org/2000/svg">
<path d="M9.83333 5.16667H16.8333V7.5H9.83333V5.16667ZM9.83333 9.83333H16.8333V12.1667H9.83333V9.83333ZM9.83333 14.5H16.8333V16.8333H9.83333V14.5ZM5.16667 5.16667H7.5V7.5H5.16667V5.16667ZM5.16667 9.83333H7.5V12.1667H5.16667V9.83333ZM5.16667 14.5H7.5V16.8333H5.16667V14.5ZM20.45 0.5H1.55C0.966667 0.5 0.5 0.966667 0.5 1.55V20.45C0.5 20.9167 0.966667 21.5 1.55 21.5H20.45C20.9167 21.5 21.5 20.9167 21.5 20.45V1.55C21.5 0.966667 20.9167 0.5 20.45 0.5ZM19.1667 19.1667H2.83333V2.83333H19.1667V19.1667Z" fill="black"/>
</svg>
