<svg width="28" height="28" viewBox="0 0 28 28" fill="none" xmlns="http://www.w3.org/2000/svg">
<path d="M18.0833 12.8334C19.0498 12.8334 19.8333 12.0499 19.8333 11.0834C19.8333 10.1169 19.0498 9.33337 18.0833 9.33337C17.1168 9.33337 16.3333 10.1169 16.3333 11.0834C16.3333 12.0499 17.1168 12.8334 18.0833 12.8334Z" fill="#1A1A1A"/>
<path d="M9.91666 12.8334C10.8832 12.8334 11.6667 12.0499 11.6667 11.0834C11.6667 10.1169 10.8832 9.33337 9.91666 9.33337C8.95016 9.33337 8.16666 10.1169 8.16666 11.0834C8.16666 12.0499 8.95016 12.8334 9.91666 12.8334Z" fill="#1A1A1A"/>
<path d="M14 18.6667C12.2733 18.6667 10.7917 17.7217 9.97501 16.3334H8.02668C8.96001 18.725 11.2817 20.4167 14 20.4167C16.7183 20.4167 19.04 18.725 19.9733 16.3334H18.025C17.22 17.7217 15.7267 18.6667 14 18.6667ZM13.9883 2.33337C7.54834 2.33337 2.33334 7.56004 2.33334 14C2.33334 20.44 7.54834 25.6667 13.9883 25.6667C20.44 25.6667 25.6667 20.44 25.6667 14C25.6667 7.56004 20.44 2.33337 13.9883 2.33337ZM14 23.3334C8.84334 23.3334 4.66668 19.1567 4.66668 14C4.66668 8.84337 8.84334 4.66671 14 4.66671C19.1567 4.66671 23.3333 8.84337 23.3333 14C23.3333 19.1567 19.1567 23.3334 14 23.3334Z" fill="#1A1A1A"/>
</svg>
