<svg width="22" height="22" viewBox="0 0 22 22" fill="none" xmlns="http://www.w3.org/2000/svg">
<path d="M8.17865 0.368195C4.081 0.368195 0.736389 3.7128 0.736389 7.81046C0.736389 11.9081 4.081 15.2527 8.17865 15.2527C10.0371 15.2527 11.735 14.5596 13.0419 13.4254L13.4946 13.8781V15.2527L19.8736 21.6318L22 19.5054L15.6209 13.1264H14.2463L13.7936 12.6737C14.9278 11.3668 15.6209 9.6689 15.6209 7.81046C15.6209 3.7128 12.2763 0.368195 8.17865 0.368195ZM8.17865 2.49456C11.1271 2.49456 13.4946 4.86197 13.4946 7.81046C13.4946 10.7589 11.1271 13.1264 8.17865 13.1264C5.23017 13.1264 2.86275 10.7589 2.86275 7.81046C2.86275 4.86197 5.23017 2.49456 8.17865 2.49456Z" fill="#F3F3F3"/>
</svg>
