<svg width="26" height="18" viewBox="0 0 26 18" fill="none" xmlns="http://www.w3.org/2000/svg">
<path d="M23.0592 9.0639L23.0882 9.00472L23.0592 8.94554C21.1863 5.12017 17.3489 2.70192 13.0468 2.70192C8.74469 2.70192 4.90727 5.12018 3.03432 8.94554L3.00534 9.00472L3.03432 9.0639C4.90724 12.8892 8.73339 15.3075 13.0468 15.3075C17.3602 15.3075 21.1863 12.8892 23.0592 9.0639ZM0.855096 9.00472C2.78825 4.15691 7.51539 0.728085 13.0468 0.728085C18.5782 0.728085 23.3053 4.15691 25.2385 9.00472C23.3053 13.8525 18.5782 17.2814 13.0468 17.2814C7.51539 17.2814 2.78825 13.8525 0.855096 9.00472ZM15.9851 9.00472C15.9851 7.38273 14.6688 6.0664 13.0468 6.0664C11.4248 6.0664 10.1085 7.38273 10.1085 9.00472C10.1085 10.6267 11.4248 11.943 13.0468 11.943C14.6688 11.943 15.9851 10.6267 15.9851 9.00472ZM8.13463 9.00472C8.13463 6.29774 10.3398 4.09257 13.0468 4.09257C15.7538 4.09257 17.9589 6.29774 17.9589 9.00472C17.9589 11.7117 15.7538 13.9169 13.0468 13.9169C10.3398 13.9169 8.13463 11.7117 8.13463 9.00472Z" fill="#9B9B9B" stroke="#F3F3F3" stroke-width="0.269159"/>
</svg>
