<svg width="24" height="24" viewBox="0 0 24 24" fill="none" xmlns="http://www.w3.org/2000/svg">
<path d="M2.675 0.691895C1.26868 0.691895 0.125 1.83557 0.125 3.24189V21.0919C0.125 22.4982 1.26868 23.6419 2.675 23.6419H20.525C21.9313 23.6419 23.075 22.4982 23.075 21.0919V3.24189C23.075 1.83557 21.9313 0.691895 20.525 0.691895H2.675ZM2.675 3.24189H20.525L20.5275 21.0919H2.675V3.24189ZM14.8722 5.93633C13.1229 5.93633 11.7021 7.35837 11.7021 9.1064C11.7021 9.43407 11.8117 9.65287 11.8117 9.8709C9.189 9.76252 6.89445 8.45143 5.36445 6.59375C5.03678 7.03108 4.92617 7.57578 4.92617 8.12275C4.92617 9.21543 5.47345 10.092 6.3481 10.857C5.8024 10.7474 5.3635 10.6368 4.92617 10.4188C4.92617 11.9488 6.01847 13.1516 7.43882 13.4792C7.11114 13.5889 6.89242 13.5888 6.56475 13.5888C6.4551 13.5888 6.23492 13.4792 6.01689 13.4792C6.45422 14.6816 7.54747 15.6632 8.96782 15.6632C7.87515 16.4282 6.4536 16.9755 5.03325 16.9755H4.26875C5.6891 17.8489 7.32937 18.3975 9.07739 18.3975C14.8697 18.3975 18.0397 13.5878 18.0397 9.43511V8.99683C18.5867 8.5595 19.1314 8.01366 19.5712 7.35576C18.9159 7.68471 18.3689 7.79396 17.7135 7.90361C18.3689 7.46756 18.9149 6.92047 19.133 6.15547C18.586 6.48314 17.9307 6.81032 17.1657 6.91997C16.6187 6.26462 15.7468 5.93633 14.8722 5.93633Z" fill="#F3F3F3"/>
</svg>
