<svg width="24" height="23" viewBox="0 0 24 23" fill="none" xmlns="http://www.w3.org/2000/svg">
<path d="M6.35574 18.4797L6.29411 18.6086L6.40606 18.6975C7.96184 19.933 9.91862 20.6654 12.0466 20.6654C14.1746 20.6654 16.1314 19.933 17.6872 18.6975L17.7981 18.6095L17.7382 18.4811C17.5981 18.1808 17.289 17.907 16.9045 17.6671C16.5144 17.4236 16.0228 17.2005 15.4847 17.0111C14.4094 16.6328 13.1247 16.3813 12.0466 16.3813C10.9685 16.3813 9.68658 16.6328 8.61269 17.0111C8.07524 17.2005 7.58409 17.4236 7.19359 17.667C6.8085 17.907 6.49871 18.1804 6.35574 18.4797ZM19.0407 17.0448L19.1847 17.22L19.3221 17.0395C20.4884 15.5074 21.198 13.5967 21.198 11.514C21.198 6.46913 17.0915 2.36262 12.0466 2.36262C7.00172 2.36262 2.89522 6.46913 2.89522 11.514C2.89522 13.5967 3.60486 15.5074 4.77113 17.0395L4.90852 17.22L5.05254 17.0448C5.81996 16.111 7.15157 15.4707 8.51874 15.0645C9.88107 14.6599 11.2461 14.4972 12.0466 14.4972C12.8471 14.4972 14.2122 14.6599 15.5745 15.0645C16.9417 15.4707 18.2733 16.111 19.0407 17.0448ZM1.0111 11.514C1.0111 5.42247 5.95507 0.478512 12.0466 0.478512C18.1382 0.478512 23.0821 5.42247 23.0821 11.514C23.0821 17.6056 18.1382 22.5495 12.0466 22.5495C5.95507 22.5495 1.0111 17.6056 1.0111 11.514ZM8.30082 8.71029C8.30082 6.63369 9.97002 4.96449 12.0466 4.96449C14.1232 4.96449 15.7924 6.63369 15.7924 8.71029C15.7924 10.7869 14.1232 12.4561 12.0466 12.4561C9.97002 12.4561 8.30082 10.7869 8.30082 8.71029ZM10.1849 8.71029C10.1849 9.74023 11.0167 10.572 12.0466 10.572C13.0766 10.572 13.9083 9.74023 13.9083 8.71029C13.9083 7.68035 13.0766 6.84861 12.0466 6.84861C11.0167 6.84861 10.1849 7.68035 10.1849 8.71029Z" fill="#9B9B9B" stroke="#F3F3F3" stroke-width="0.358878"/>
</svg>
