<svg width="126" height="35" viewBox="0 0 126 35" fill="none" xmlns="http://www.w3.org/2000/svg">
<path d="M0.927124 8.88403H8.33171L12.6434 19.9149L17.0109 8.88403H24.2204L13.3645 34.9976H6.10913L9.08075 28.0778L0.927124 8.88403Z" fill="#4B4B4B"/>
<path d="M31.7309 8.44489C26.1674 8.44489 22.6504 13.4344 22.6504 18.4031C22.6504 23.9943 26.5064 28.4271 31.6252 28.4271C35.4437 28.4271 36.8834 26.1008 36.8834 26.1008V27.913H43.3415V8.88422H36.8834V10.6142C36.8836 10.6142 35.2772 8.44489 31.7309 8.44489ZM33.1045 14.5602C35.6714 14.5602 36.9962 16.5913 36.9962 18.424C36.9962 20.3976 35.577 22.3345 33.1045 22.3345C31.0553 22.3345 29.2035 20.6597 29.2035 18.508C29.2037 16.3259 30.693 14.5602 33.1045 14.5602Z" fill="#4B4B4B"/>
<path d="M45.5659 27.9132V0.481628H52.3208V10.68C52.3208 10.68 53.9251 8.44738 57.2855 8.44738C61.3958 8.44738 63.8041 11.51 63.8041 15.8862V27.9132H57.0985V17.5336C57.0985 16.0526 56.3929 14.6219 54.795 14.6219C53.1685 14.6219 52.3208 16.0743 52.3208 17.5336V27.913H45.5659V27.9132Z" fill="#4B4B4B"/>
<path d="M75.321 8.44714C68.9496 8.44714 65.1562 13.2917 65.1562 18.4822C65.1562 24.3889 69.7495 28.4271 75.3451 28.4271C80.7685 28.4271 85.5144 24.5722 85.5144 18.581C85.5144 12.0262 80.5456 8.44714 75.321 8.44714ZM75.3819 14.6161C77.6324 14.6161 79.1895 16.4906 79.1895 18.4895C79.1895 20.1943 77.7385 22.2973 75.3819 22.2973C73.2225 22.2973 71.602 20.5649 71.602 18.4708C71.6018 16.4534 72.9492 14.6161 75.3819 14.6161Z" fill="#4B4B4B"/>
<path d="M96.7676 8.44714C90.3964 8.44714 86.603 13.2917 86.603 18.4822C86.603 24.3889 91.1963 28.4271 96.7919 28.4271C102.215 28.4271 106.961 24.5722 106.961 18.581C106.961 12.0262 101.992 8.44714 96.7676 8.44714ZM96.8287 14.6161C99.079 14.6161 100.636 16.4906 100.636 18.4895C100.636 20.1943 99.1853 22.2973 96.8287 22.2973C94.6691 22.2973 93.0488 20.5649 93.0488 18.4708C93.0486 16.4534 94.3958 14.6161 96.8287 14.6161Z" fill="#4B4B4B"/>
<path d="M112.291 19.3461C114.769 19.3461 116.777 21.3544 116.777 23.8316C116.777 26.3089 114.769 28.3171 112.291 28.3171C109.814 28.3171 107.806 26.3089 107.806 23.8316C107.806 21.3544 109.814 19.3461 112.291 19.3461Z" fill="#4B4B4B"/>
<path d="M118.251 17.6984H110.176L117.342 0.481628H125.387L118.251 17.6984Z" fill="#4B4B4B"/>
</svg>
