<svg width="26" height="22" viewBox="0 0 26 22" fill="none" xmlns="http://www.w3.org/2000/svg">
<path d="M13.2 0.966797C13.2 0.966797 5.22558 0.966757 3.23658 1.49971C2.13881 1.79296 1.27617 2.65687 0.982922 3.75337C0.449972 5.74237 0.450012 11.1668 0.450012 11.1668C0.450012 11.1668 0.449972 16.5912 0.982922 18.5802C1.27617 19.678 2.14008 20.5406 3.23658 20.8339C5.22558 21.3668 13.2 21.3668 13.2 21.3668C13.2 21.3668 21.1744 21.3668 23.1634 20.8339C24.2599 20.5406 25.1239 19.6767 25.4171 18.5802C25.9501 16.5912 25.95 11.1668 25.95 11.1668C25.95 11.1668 25.9501 5.74237 25.4171 3.75337C25.1239 2.65687 24.2599 1.79296 23.1634 1.49971C21.1744 0.966757 13.2 0.966797 13.2 0.966797ZM13.2 3.5168C16.8746 3.5168 21.4759 3.68715 22.5035 3.96255C22.719 4.01992 22.8956 4.19653 22.9543 4.41328C23.2615 5.55823 23.4 9.05285 23.4 11.1668C23.4 13.2807 23.2615 16.7741 22.9543 17.9203C22.8969 18.1358 22.7203 18.3124 22.5035 18.371C21.4772 18.6464 16.8746 18.8168 13.2 18.8168C9.52674 18.8168 4.92542 18.6464 3.8965 18.371C3.68102 18.3137 3.50441 18.1371 3.44576 17.9203C3.13849 16.7754 3.00001 13.2807 3.00001 11.1668C3.00001 9.05285 3.13849 5.55829 3.44576 4.41079C3.50314 4.19659 3.67975 4.01992 3.8965 3.96255C4.92287 3.68715 9.52546 3.5168 13.2 3.5168ZM10.65 6.74912V15.5845L14.475 13.3756L18.3 11.1668L10.65 6.74912Z" fill="#F3F3F3"/>
</svg>
